<?xml version="1.0" encoding="UTF-8"?>
<svg id="Calque_1" data-name="Calque 1" xmlns="http://www.w3.org/2000/svg" xmlns:xlink="http://www.w3.org/1999/xlink" viewBox="0 0 162.43 307.56">
  <defs>
    <style>
      .cls-1 {
        fill: url(#linear-gradient-2);
      }

      .cls-2 {
        fill: #fff;
      }

      .cls-3 {
        fill: url(#linear-gradient-6);
      }

      .cls-4 {
        fill: #a6a6a6;
      }

      .cls-5 {
        fill: url(#linear-gradient-5);
      }

      .cls-6 {
        fill: #878787;
      }

      .cls-7 {
        fill: url(#linear-gradient-7);
      }

      .cls-8 {
        fill: url(#linear-gradient-9);
      }

      .cls-9 {
        fill: url(#linear-gradient-3);
      }

      .cls-10 {
        fill: url(#linear-gradient);
      }

      .cls-11 {
        fill: #e6007e;
      }

      .cls-12 {
        fill: url(#linear-gradient-4);
      }

      .cls-13 {
        fill: #666;
      }

      .cls-14 {
        fill: url(#linear-gradient-8);
      }
    </style>
    <linearGradient id="linear-gradient" x1="505.48" y1="75.34" x2="509.45" y2="75.34" gradientTransform="translate(603.7) rotate(-180) scale(1 -1)" gradientUnits="userSpaceOnUse">
      <stop offset="0" stop-color="#fff" stop-opacity=".4"/>
      <stop offset="1" stop-color="#fff" stop-opacity="0"/>
    </linearGradient>
    <linearGradient id="linear-gradient-2" x1="518.41" y1="68.83" x2="540.12" y2="68.83" xlink:href="#linear-gradient"/>
    <linearGradient id="linear-gradient-3" x1="506.47" y1="67.45" x2="510.04" y2="67.45" xlink:href="#linear-gradient"/>
    <linearGradient id="linear-gradient-4" x1="507.05" y1="81.35" x2="517" y2="81.35" xlink:href="#linear-gradient"/>
    <linearGradient id="linear-gradient-5" x1="510.91" y1="64.3" x2="517.69" y2="64.3" xlink:href="#linear-gradient"/>
    <linearGradient id="linear-gradient-6" x1="514.33" y1="63.78" x2="531.47" y2="63.78" xlink:href="#linear-gradient"/>
    <linearGradient id="linear-gradient-7" x1="513.3" y1="81.76" x2="533.28" y2="81.76" xlink:href="#linear-gradient"/>
    <linearGradient id="linear-gradient-8" x1="518.23" y1="79.5" x2="540.09" y2="79.5" xlink:href="#linear-gradient"/>
    <linearGradient id="linear-gradient-9" x1="38.93" y1="141.59" x2="97.87" y2="141.59" gradientTransform="matrix(1,0,0,1,0,0)" xlink:href="#linear-gradient"/>
  </defs>
  <g>
    <path class="cls-2" d="m1.77,294.1c51.79,15.3,107.11,15.3,158.89,0V13.4C108.87-1.9,53.55-1.9,1.77,13.4v280.71h0Z"/>
    <path class="cls-6" d="m56.49,250.88c-4.07,0-7.9,1.59-10.78,4.46-2.88,2.88-4.46,6.7-4.46,10.78s1.58,7.89,4.46,10.77c2.88,2.88,6.7,4.46,10.78,4.46s7.89-1.58,10.77-4.46c2.88-2.87,4.46-6.7,4.46-10.77s-1.58-7.9-4.46-10.78c-2.88-2.87-6.7-4.46-10.77-4.46Zm8.84,24.07c-2.36,2.37-5.5,3.66-8.84,3.66s-6.48-1.3-8.84-3.66c-2.36-2.36-3.67-5.49-3.67-8.83s1.3-6.48,3.67-8.84c2.35-2.36,5.5-3.66,8.84-3.66s6.47,1.3,8.84,3.66c2.36,2.36,3.66,5.5,3.66,8.84s-1.3,6.47-3.66,8.83Zm-7.83-19.57h0s0,0,0,0c-.33-.03-.67-.05-1-.05-2.88,0-5.59,1.12-7.62,3.16-2.04,2.04-3.16,4.74-3.16,7.63s1.12,5.58,3.16,7.62c2.03,2.04,4.74,3.16,7.63,3.16s5.58-1.12,7.62-3.16c4.2-4.2,4.2-11.04,0-15.25-1.79-1.8-4.11-2.88-6.61-3.11Zm-6.7,5.05c1.05-1.06,2.36-1.79,3.78-2.13-.35,1.42-1.07,2.73-2.13,3.78-1.06,1.06-2.36,1.79-3.79,2.13.35-1.42,1.07-2.72,2.13-3.78Zm-2.31,6.61c2.21-.36,4.28-1.4,5.9-3.02,1.62-1.62,2.66-3.68,3.02-5.9,1.34.15,2.62.64,3.72,1.42l-11.21,11.21c-.78-1.1-1.27-2.37-1.42-3.72Zm13.68,4.77c-1.08,1.08-2.42,1.82-3.88,2.15.32-1.49,1.07-2.88,2.17-3.99,1.07-1.08,2.42-1.81,3.88-2.15-.32,1.46-1.04,2.85-2.17,3.99Zm-3.64-3.78c-1.66,1.66-2.72,3.79-3.04,6.07-1.32-.16-2.56-.64-3.64-1.41l11.21-11.21c.75,1.07,1.22,2.28,1.39,3.53-2.22.36-4.29,1.4-5.92,3.02Zm47.58-3.3c.61-1.46.88-3.96-.25-6.55l-.28-.65-.64-.29c-2.58-1.14-5.24-1.14-7.81,0l-1.08.48v16.54c1.75.92,4.07,1.34,5.38,1.34s3.28-.29,4.56-.86l.65-.28.28-.64c1.12-2.57,1.05-5.17.43-7.14-.3-.97-.87-1.33-1.23-1.94Zm-6.44-4.55c1.05-.26,2.08-.22,3.13.12.38,1.2.38,2.22,0,3.42-.59.19-1.18.23-1.76.29-.42.04-.87,0-1.37,0v-3.84Zm4.19,11.5c-1.05.34-2.83.41-4.19,0v-4.33c.53-.04,1.4-.09,1.69-.09,1.06-.03,1.91.09,2.49.27.83,1.16.4,3.67,0,4.15Zm-17.09-14.25l-1.14.45v17.68h3.62v-7.56c1.51,0,3.56,0,4.54,0v-3.62c-.98,0-3.03,0-4.54.01v-3.96c1.52-.37,3.01-.25,4.54.37v-3.81c-2.34-.63-4.7-.48-7.02.45Zm33.95,9.23c-.27-.81-.88-1.33-1.24-1.94.61-1.46.89-3.96-.25-6.55l-.28-.65-.64-.29c-2.57-1.14-5.24-1.14-7.81,0l-1.08.48v16.54c1.75.92,4.07,1.34,5.38,1.34s3.28-.29,4.56-.86l.64-.28.29-.64c1.12-2.57,1.09-5.19.43-7.14Zm-7.67-6.49c1.04-.26,2.07-.22,3.12.12.39,1.2.39,2.22,0,3.42-.59.19-1.18.23-1.76.29-.42.04-.87,0-1.37,0v-3.84Zm4.19,11.5c-1.06.34-2.84.41-4.19,0v-4.33c.53-.04,1.39-.09,1.68-.09,1.07-.03,1.91.09,2.48.27.66,1.24.44,3.44.02,4.15Zm-40.93-14.25l-1.14.45v17.68h3.62v-7.56c1.51,0,3.57,0,4.55,0v-3.62c-.98,0-3.03,0-4.55.01v-3.96c1.52-.37,3.02-.25,4.55.37v-3.81c-2.34-.63-4.7-.48-7.03.45Z"/>
    <path class="cls-6" d="m81.21,307.56c-27.21,0-54.32-3.97-80.56-11.79l-.65-.19V11.93l.65-.19c52.49-15.65,108.63-15.65,161.12,0l.65.19v283.64l-.65.19c-26.25,7.82-53.35,11.79-80.56,11.79h0ZM1.77,294.1c51.79,15.3,107.11,15.3,158.89,0V13.4C108.87-1.9,53.55-1.9,1.77,13.4v280.71h0Z"/>
  </g>
  <g>
    <g>
      <path class="cls-11" d="m94.36,71.18c-.04-.12-.07-.24-.11-.37,1.65.36,2.82.81,3.5,1.25.3,1.27.46,2.6.46,3.97,0,1.31-.15,2.59-.43,3.82-.43-2.13-1.38-4.12-2.21-5.87-.48-1.02-.94-1.98-1.22-2.81"/>
      <path class="cls-11" d="m78.57,63.13c2.22.63,5.92,2.19,6.72,5.7-.86.04-1.75.09-2.68.18-7.17.64-15.44,3.06-19.03,6.25.22-4.98,2.54-9.41,6.1-12.43,1.46-.53,5.21-.74,8.89.3"/>
      <path class="cls-11" d="m93.92,64.63c1.44,1.64,2.57,3.55,3.31,5.65-.89-.36-2.02-.69-3.36-.94-.35-1.82-.24-3.34.05-4.71"/>
      <path class="cls-11" d="m91.66,74.42c-.12-1.46-.31-2.82-.56-4.08.58.06,1.13.13,1.65.2.09.35.19.7.31,1.07.3.91.78,1.91,1.28,2.96,1.3,2.73,2.74,5.78,2.17,8.94-1.96,4.1-5.5,7.31-9.82,8.85,2.89-3.29,5.63-9.76,4.96-17.95"/>
      <path class="cls-11" d="m92.45,69.11c-.53-.07-1.08-.13-1.66-.18-1.11-4.49-2.97-7.54-4.78-9.45,2.57.79,4.88,2.17,6.78,3.97-.43,1.63-.7,3.44-.35,5.66"/>
      <path class="cls-11" d="m89.36,68.84c-.85-.04-1.75-.05-2.69-.04-.62-3.27-3.34-5.73-7.73-6.98-2.23-.63-4.68-.88-6.71-.78,2.55-1.47,5.5-2.32,8.66-2.32.79,0,1.57.06,2.34.16,1.99,1.27,4.67,4.32,6.14,9.96"/>
      <path class="cls-11" d="m75.8,86.66c2.85-2.12,11.34-8.42,11.03-16.5,1.02-.01,1.98.02,2.87.06.27,1.31.49,2.74.61,4.3.81,10.02-3.82,17.25-6.59,18.61-.92.15-1.86.23-2.82.23-3.94,0-7.56-1.31-10.47-3.53,1.46-.53,3.15-1.51,5.04-2.93l.34-.25Z"/>
      <path class="cls-11" d="m82.74,70.37c.95-.08,1.85-.14,2.72-.18.3,7.37-7.77,13.36-10.47,15.36l-.34.26c-2.14,1.6-4.02,2.63-5.47,2.99-3.17-2.91-5.25-6.99-5.56-11.56,2.11-3.02,10.61-6.11,19.13-6.87"/>
      <path class="cls-10" d="m94.36,71.18c-.04-.12-.07-.24-.11-.37,1.65.36,2.82.81,3.5,1.25.3,1.27.46,2.6.46,3.97,0,1.31-.15,2.59-.43,3.82-.43-2.13-1.38-4.12-2.21-5.87-.48-1.02-.94-1.98-1.22-2.81"/>
      <path class="cls-1" d="m78.57,63.13c2.22.63,5.92,2.19,6.72,5.7-.86.04-1.75.09-2.68.18-7.17.64-15.44,3.06-19.03,6.25.22-4.98,2.54-9.41,6.1-12.43,1.46-.53,5.21-.74,8.89.3"/>
      <path class="cls-9" d="m93.92,64.63c1.44,1.64,2.57,3.55,3.31,5.65-.89-.36-2.02-.69-3.36-.94-.35-1.82-.24-3.34.05-4.71"/>
      <path class="cls-12" d="m91.66,74.42c-.12-1.46-.31-2.82-.56-4.08.58.06,1.13.13,1.65.2.09.35.19.7.31,1.07.3.91.78,1.91,1.28,2.96,1.3,2.73,2.74,5.78,2.17,8.94-1.96,4.1-5.5,7.31-9.82,8.85,2.89-3.29,5.63-9.76,4.96-17.95"/>
      <path class="cls-5" d="m92.45,69.11c-.53-.07-1.08-.13-1.66-.18-1.11-4.49-2.97-7.54-4.78-9.45,2.57.79,4.88,2.17,6.78,3.97-.43,1.63-.7,3.44-.35,5.66"/>
      <path class="cls-3" d="m89.36,68.84c-.85-.04-1.75-.05-2.69-.04-.62-3.27-3.34-5.73-7.73-6.98-2.23-.63-4.68-.88-6.71-.78,2.55-1.47,5.5-2.32,8.66-2.32.79,0,1.57.06,2.34.16,1.99,1.27,4.67,4.32,6.14,9.96"/>
      <path class="cls-7" d="m75.8,86.66c2.85-2.12,11.34-8.42,11.03-16.5,1.02-.01,1.98.02,2.87.06.27,1.31.49,2.74.61,4.3.81,10.02-3.82,17.25-6.59,18.61-.92.15-1.86.23-2.82.23-3.94,0-7.56-1.31-10.47-3.53,1.46-.53,3.15-1.51,5.04-2.93l.34-.25Z"/>
      <path class="cls-14" d="m82.74,70.37c.95-.08,1.85-.14,2.72-.18.3,7.37-7.77,13.36-10.47,15.36l-.34.26c-2.14,1.6-4.02,2.63-5.47,2.99-3.17-2.91-5.25-6.99-5.56-11.56,2.11-3.02,10.61-6.11,19.13-6.87"/>
    </g>
    <g>
      <g>
        <path class="cls-11" d="m96.77,115.24l1.1-12.6c-7.56-2.09-15.41-1.6-23.38,1.48l-3.9,1.5-1.57,17.04c-.27,1.54-1.05,2.22-2.03,2.5-2.12.61-4.76-1.26-5.64-1.68-6.63-3.84-10.98-12.43-11.26-20.44h-11.16c-.08,17.49,11.88,31.66,28.72,34.37l-4.7,44.41h11.98s4.69-44.26,4.69-44.26h14.82v-11.99c-3.24,0-8.77.03-13.77.04l1.16-11.57c5.14-1.21,10.05-.81,14.94,1.2Z"/>
        <path class="cls-8" d="m96.77,115.24l1.1-12.6c-7.56-2.09-15.41-1.6-23.38,1.48l-3.9,1.5-1.57,17.04c-.27,1.54-1.05,2.22-2.03,2.5-2.12.61-4.76-1.26-5.64-1.68-6.63-3.84-10.98-12.43-11.26-20.44h-11.16c-.08,17.49,11.88,31.66,28.72,34.37l-4.7,44.41h11.98s4.69-44.26,4.69-44.26h14.82v-11.99c-3.24,0-8.77.03-13.77.04l1.16-11.57c5.14-1.21,10.05-.81,14.94,1.2Z"/>
        <g>
          <g>
            <path class="cls-4" d="m111.56,127.92c1.99-.2,3.97-.33,5.99-.99,1.32-4.07,1.32-7.19,0-11.26-3.57-1.16-7.08-1.29-10.63-.4v12.66c1.68,0,3.23.12,4.65-.02Z"/>
            <path class="cls-4" d="m112.64,140.1c-.98.02-3.9.16-5.72.31v14.42c3.73,1.11,9.01,1.13,14.23-.46,1.45-2.41,2.19-9.13-.04-13.35-1.95-.63-4.82-1-8.46-.92Z"/>
          </g>
          <path class="cls-4" d="m33.3,166.08l-3.51-1.4v-61.8s-5.83,0-5.83,0c-1.68,0-3.04,1.41-3.04,3.14v58.46c0,1.72,1.34,3.11,3,3.13l13.93-.02c-1.52-.41-3.03-.92-4.54-1.52Z"/>
          <path class="cls-4" d="m120.35,167.62h17.4c1.68,0,3.04-1.39,3.04-3.13v-58.48c0-1.72-1.34-3.11-3-3.13h-20.81c2.63.47,5.25,1.27,7.84,2.41l2.19.97.96,2.19c3.86,8.82,2.92,17.32.84,22.29.86,1.43,2.11,2.74,3.11,4.35.43.69.81,1.42,1.09,2.25,2.17,6.43,2.36,14.94-1.09,23.39-.12.29-.23.58-.36.87,0,0-.66,1.6-.96,2.18-3.14,1.67-8.2,3.32-10.24,3.83Z"/>
        </g>
      </g>
      <path class="cls-4" d="m64.46,167.62l3.2-30.22c-11.13-1.79-20.13-8.58-24.93-18.03v35.17c6.24,1.53,11.57.3,15.45-1.24v14.32h6.28Z"/>
      <polygon class="cls-4" points="94.44 137.55 79.62 137.55 76.44 167.62 94.44 167.62 94.44 137.55"/>
    </g>
    <g>
      <g>
        <path class="cls-13" d="m22.06,195.15v7.68h4.58v.97h-5.73v-8.64h1.15Z"/>
        <path class="cls-13" d="m30.9,195.15v8.64h-1.15v-8.64h1.15Z"/>
        <path class="cls-13" d="m39.57,203.69c-.5.2-1,.3-1.51.3-.65,0-1.22-.12-1.73-.36-.51-.24-.94-.56-1.3-.96-.36-.4-.63-.87-.81-1.39-.19-.52-.28-1.07-.28-1.63,0-.63.09-1.23.26-1.8.17-.57.43-1.07.77-1.5.34-.43.77-.77,1.28-1.02.51-.25,1.11-.38,1.8-.38.47,0,.91.05,1.33.16.42.11.79.28,1.11.51.33.23.6.53.82.89.22.36.37.79.45,1.3h-1.15c-.06-.33-.16-.62-.31-.85-.15-.24-.34-.43-.57-.59-.23-.15-.48-.27-.77-.35-.29-.08-.59-.12-.91-.12-.52,0-.97.11-1.35.31-.38.21-.68.49-.92.83-.24.34-.41.73-.53,1.17-.11.44-.17.89-.17,1.35s.06.89.19,1.3c.13.42.32.78.57,1.1.25.32.56.57.93.76.37.19.79.28,1.28.28.45,0,.85-.07,1.2-.22.35-.15.64-.35.88-.6.24-.25.42-.55.54-.9.12-.34.17-.71.16-1.11h-2.76v-.97h3.79v4.55h-.73l-.3-1.08c-.34.45-.76.78-1.26.97Z"/>
        <path class="cls-13" d="m51.32,203.16c-.59.55-1.43.83-2.52.83s-1.98-.26-2.61-.79c-.63-.53-.94-1.37-.94-2.52v-5.52h1.15v5.52c0,.77.21,1.36.62,1.76.41.4,1,.6,1.78.6.73,0,1.29-.2,1.68-.6.38-.4.58-.99.58-1.76v-5.52h1.15v5.52c0,1.11-.29,1.94-.88,2.49Z"/>
        <path class="cls-13" d="m61.63,195.15v.97h-4.82v2.75h4.49v.97h-4.49v2.99h4.85v.97h-6v-8.64h5.97Z"/>
        <path class="cls-13" d="m23.88,212.21c1.33,0,2.36.34,3.07,1.02.72.68,1.08,1.71,1.08,3.1,0,.73-.08,1.37-.24,1.93-.16.56-.41,1.03-.75,1.42-.34.38-.77.68-1.3.88-.52.2-1.15.3-1.86.3h-2.97v-8.64h2.97Zm.1,7.68c.13,0,.29-.01.48-.03.19-.02.4-.07.62-.15.22-.08.43-.19.65-.33.21-.15.41-.34.58-.59.17-.25.31-.56.42-.94.11-.38.16-.83.16-1.36s-.05-.98-.15-1.39c-.1-.41-.27-.75-.5-1.04-.23-.29-.53-.5-.89-.65-.36-.15-.81-.22-1.34-.22h-1.94v6.71h1.91Z"/>
        <path class="cls-13" d="m37.16,212.21v.97h-4.82v2.75h4.49v.97h-4.49v2.99h4.85v.97h-6v-8.64h5.97Z"/>
        <path class="cls-13" d="m49.82,212.21c.19,0,.39,0,.6,0,.21,0,.43.02.64.04.21.02.41.05.59.09.18.04.34.1.47.18.28.17.52.4.72.7.2.3.3.67.3,1.1,0,.46-.11.86-.33,1.19-.22.34-.54.58-.95.74v.02c.53.11.94.36,1.22.73.28.37.42.82.42,1.36,0,.31-.06.62-.17.92-.11.3-.28.56-.5.79-.22.23-.5.42-.82.56-.33.14-.7.21-1.13.21h-4.18v-8.64h3.14Zm.31,3.72c.65,0,1.12-.12,1.41-.35.29-.23.43-.58.43-1.04,0-.31-.05-.55-.15-.73-.1-.18-.23-.31-.4-.41-.17-.1-.37-.16-.59-.19-.22-.03-.46-.04-.71-.04h-2.3v2.75h2.3Zm.58,3.96c.51,0,.91-.14,1.19-.41.29-.27.43-.65.43-1.14,0-.28-.05-.52-.16-.7-.1-.19-.24-.33-.42-.44-.17-.11-.37-.19-.6-.23-.23-.04-.46-.07-.7-.07h-2.63v2.99h2.88Z"/>
        <path class="cls-13" d="m60.55,212.21l3.38,8.64h-1.27l-.94-2.6h-3.66l-.97,2.6h-1.17l3.37-8.64h1.27Zm.8,5.07l-1.44-4.03h-.02l-1.46,4.03h2.93Z"/>
        <path class="cls-13" d="m71.09,213.39c-.38-.28-.87-.42-1.47-.42-.24,0-.48.02-.71.07-.23.05-.44.13-.62.24-.18.11-.33.26-.44.45-.11.19-.16.43-.16.71,0,.27.08.48.24.65.16.17.37.3.63.41.26.11.56.19.89.26.33.07.67.14,1.01.22.34.08.68.18,1.01.28.33.11.63.26.89.44.26.19.47.42.63.7.16.28.24.64.24,1.07,0,.46-.1.85-.31,1.18-.21.33-.47.59-.79.8-.32.21-.68.36-1.08.45-.4.09-.8.14-1.19.14-.48,0-.94-.06-1.37-.18-.43-.12-.81-.3-1.14-.55-.33-.25-.59-.56-.77-.94-.19-.38-.28-.84-.28-1.36h1.09c0,.36.07.68.21.94.14.26.33.48.56.65.23.17.5.29.81.38.31.08.62.12.94.12.26,0,.52-.02.78-.07.26-.05.5-.13.71-.25.21-.12.38-.28.51-.48.13-.2.19-.46.19-.77,0-.3-.08-.54-.24-.73-.16-.19-.37-.34-.63-.45-.26-.12-.56-.21-.89-.28-.33-.07-.67-.15-1.01-.22-.34-.08-.68-.17-1.01-.27-.33-.1-.63-.23-.89-.4-.26-.17-.47-.38-.63-.64-.16-.26-.24-.59-.24-.99,0-.44.09-.81.27-1.13.18-.32.41-.58.71-.79.29-.21.63-.36,1-.46.38-.1.76-.15,1.16-.15.44,0,.86.05,1.23.16.38.11.71.27,1,.5.29.23.51.51.68.85.17.34.26.75.27,1.23h-1.09c-.06-.62-.29-1.07-.67-1.35Z"/>
        <path class="cls-13" d="m77.82,212.21v4.31l4.38-4.31h1.49l-3.64,3.49,3.79,5.16h-1.45l-3.12-4.37-1.44,1.34v3.03h-1.15v-8.64h1.15Z"/>
        <path class="cls-13" d="m92.9,212.21v.97h-4.82v2.75h4.49v.97h-4.49v2.99h4.85v.97h-6v-8.64h5.97Z"/>
        <path class="cls-13" d="m95.89,213.17v-.97h6.91v.97h-2.88v7.68h-1.15v-7.68h-2.88Z"/>
        <path class="cls-13" d="m108.9,212.21c.19,0,.39,0,.6,0,.21,0,.43.02.64.04.21.02.41.05.59.09.18.04.34.1.47.18.28.17.52.4.72.7.2.3.3.67.3,1.1,0,.46-.11.86-.33,1.19-.22.34-.54.58-.95.74v.02c.53.11.94.36,1.22.73.28.37.42.82.42,1.36,0,.31-.06.62-.17.92-.11.3-.28.56-.5.79-.22.23-.5.42-.82.56-.33.14-.7.21-1.13.21h-4.18v-8.64h3.14Zm.31,3.72c.65,0,1.12-.12,1.41-.35.29-.23.43-.58.43-1.04,0-.31-.05-.55-.15-.73-.1-.18-.23-.31-.4-.41-.17-.1-.37-.16-.59-.19-.22-.03-.46-.04-.71-.04h-2.3v2.75h2.3Zm.58,3.96c.51,0,.91-.14,1.19-.41.29-.27.43-.65.43-1.14,0-.28-.05-.52-.16-.7-.1-.19-.24-.33-.42-.44-.17-.11-.37-.19-.6-.23-.23-.04-.46-.07-.7-.07h-2.63v2.99h2.88Z"/>
        <path class="cls-13" d="m119.77,212.21l3.38,8.64h-1.27l-.94-2.6h-3.66l-.97,2.6h-1.17l3.37-8.64h1.27Zm.8,5.07l-1.44-4.03h-.02l-1.46,4.03h2.93Z"/>
        <path class="cls-13" d="m127.39,212.21v7.68h4.58v.97h-5.73v-8.64h1.15Z"/>
        <path class="cls-13" d="m136.21,212.21v7.68h4.58v.97h-5.73v-8.64h1.15Z"/>
      </g>
      <path class="cls-11" d="m76.91,195.15v1.6h-4.18v2h3.62v1.48h-3.62v3.57h-1.9v-8.64h6.08Z"/>
      <path class="cls-11" d="m86.51,195.15v1.6h-4.56v1.85h4.19v1.48h-4.19v2.12h4.66v1.6h-6.56v-8.64h6.46Zm-3-2.92l-1.28,2.14h1.2l1.97-2.14h-1.89Z"/>
      <path class="cls-11" d="m92.63,195.15l2.02,5.94h.02l1.91-5.94h2.68v8.64h-1.78v-6.13h-.02l-2.12,6.13h-1.46l-2.12-6.07h-.02v6.07h-1.78v-8.64h2.68Z"/>
      <path class="cls-11" d="m104.49,195.15v8.64h-1.9v-8.64h1.9Z"/>
      <path class="cls-11" d="m109.71,195.15l3.61,5.8h.02v-5.8h1.78v8.64h-1.9l-3.6-5.79h-.02v5.79h-1.78v-8.64h1.89Z"/>
      <path class="cls-11" d="m120.36,195.15v8.64h-1.9v-8.64h1.9Z"/>
      <path class="cls-11" d="m125.58,195.15l3.61,5.8h.02v-5.8h1.78v8.64h-1.9l-3.6-5.79h-.02v5.79h-1.78v-8.64h1.89Z"/>
      <path class="cls-11" d="m140.79,195.15v1.6h-4.56v1.85h4.19v1.48h-4.19v2.12h4.66v1.6h-6.56v-8.64h6.46Z"/>
    </g>
  </g>
</svg>