<?xml version="1.0" encoding="utf-8"?>
<!-- Generator: Adobe Illustrator 19.0.0, SVG Export Plug-In . SVG Version: 6.00 Build 0)  -->
<svg version="1.1" id="layer" xmlns="http://www.w3.org/2000/svg" xmlns:xlink="http://www.w3.org/1999/xlink" x="0px" y="0px"
	 viewBox="-153 -46 652 652" style="enable-background:new -153 -46 652 652;" xml:space="preserve">
<style type="text/css">
	.st0{fill:#E5291C;}
	.st1{fill:#BC1119;}
	.st2{fill:#0B2B60;}
</style>
<path id="XMLID_13_" class="st0" d="M22.2,217.2c-1-59.3,25-117.4,78.8-119.2c49.7-1.7,63.6,40,79.6,61.9
	c6.4,8.8,13.2,16.5,21.3,17.4c10.7,1.2,18.2-12.2,12.1-29.1c-3.8-10.7-14-39.2-17.2-53c-2.9-12.6-4.2-25.6-0.1-35.6
	c-10.9-11.2-13.3-23.1-13.4-29.8c0-0.8,0-1.5,0-2.2c0.2-3.5,1.9-3.2,3.4-2.5c9.8,4.7,21.7,5.2,39,10.6c2.2,0.7,3.1-0.6,3.6-3.5
	c0.5-3.4,2.9-3,4-2.3c12.3,6.9,24.4,17.4,24.8,26.2c5.6,1.6,13.9,4.6,20.8,10.1c0.6,0.5,0.7,1.2-0.1,1.3c-12.6,1.7-17.6,7.4-19.5,10
	c-0.3,0.4-0.2,1.1,0,1.5c2.8,6.1,12.4,13.5,12.2,18.6c-0.2,3-1.4,5.2-1.5,5.2c4.5,8,8.8,11,18.3,23.8c3.5,4.6,6.1,8.4,7.7,12.2
	c1.6,3.7,2.2,7.5,1.8,12.2c0,0,17.2,19.6,17.5,42.9c0.2,20.4-12.3,45.4-22.4,61.4c-12.5,19.9-19.8,35.4-23.3,46.4
	c-5.3,16.5-9.6,32.8-11.3,42.6c-1.3,7.4-1.5,12.9-0.8,16.5c0.8,3.7,10.1,9,22.3,13.5c2.1,0.8,2.7,5.1,2.7,5.1
	c-8.3-2-31.1-7.6-38.8-6.9c-2.9,0.3-5,0.8-6.7,1.4c-2.9,1-4.8,2.2-7.4,3.3v0c0-0.1-0.8-4.1,0.4-5.7c0.5-0.7,3.7-3.2,5.4-5.4
	c2.5-3.2,5-7.9,7.3-14c-0.2-5.1-3.8-9.8-3.4-13.7c0.4-3.5,2.4,2.8,7,2.1c3.2-11.5,5.1-25.4,5.9-31.6c2.1-17.6,4.9-30.4-1.1-30.9
	c-21.7-1.9-30.7,31.5-35,48.8c-4,16.3-5.8,25.5-5.6,31.2c0.1,3.7,1.1,5.8,2.7,7.4c3.8,3.5,7.5,5.5,8.6,6.8c0.7,0.9,1.8,4.3,1.9,6.3
	c-0.1-0.1-5.3-3-14-3.8c-5.9-0.5-13.5-0.3-20.5,0.9c-7.9,1.3-18.3,3.7-18.3,3.7s0.2-4.3,1.6-4.9c5.6-2.7,11.4-5.2,16.3-9.2
	c5.3-4.2,7.9-9.8,9-12c-0.2-5.1-4.4-9.7-3.2-14.2c0.4-1.8,3.2,4.2,7.3,2.7c4.7-20.5,4.9-40.5-0.5-56.3c-3.4-10.1-6.7-14.9-10.8-17.5
	c-2.5-1.5-5.7-2.9-10-0.5c-3.9,2.1-10.8,10.1-11.8,11.1c-14.1,15.5-39.6,20.2-52.6,10.9l0,0c10.8,10.4,22.3,14.6,22.3,14.6
	s-13.3,12.1-34.4,7.8c-4.7-1-15.5-3.8-28.3-11.2c1.9,3.9,4.5,7.6,7.6,10.6c6,5.8,9.5,6.6,9.5,6.6C42.1,317.8,22.8,253,22.2,217.2"/>
<path id="XMLID_14_" class="st1" d="M216.2,50.8c-9.1,5.1-12.2,13.6-9.1,22.3c1.1,3.2,2.7,5.8,4.7,7.7c-9.7-7.4-18-23.7-5.8-32.4
	c5.4-3.8,10.8-4.8,17.2-5c12.1-0.4,24.1,6.8,29.8,11.5C245.9,50,225.7,45.5,216.2,50.8 M230.1,61.9c-0.4,2.4,1.6,4.7,4.4,5.1
	c2.8,0.4,5.4-1.2,5.7-3.6c0.1-0.8,0-1.5-0.3-2.1c0,0,1.2,0.2,2.1,0.6l-0.9-1.6c-2.6-1.5-5.3-2.2-6.4-2.3c-5.8-0.9-8,2.8-8,2.8
	c1.4-0.3,3.8-0.4,3.9-0.4C230.4,60.8,230.2,61.4,230.1,61.9 M198.4,232.6c47.6,7.8,75.7-25.1,51.1-52.8c2.1,13-4.3,25-17,32.5
	c-13.6,8-34.2,11.1-53.8,9.6c-11.6-0.9-21-1.7-34.6-0.1C166.2,221.8,175.1,228.7,198.4,232.6 M273.3,155.6c0,0,12.4,5.7,16.4,17
	c0,0,4.1-12.4-7.2-31.1c-5.6-9.4-16.2-14.2-25.4-24.3C261.1,129.6,274.3,134.1,273.3,155.6 M217,105.1c1.7,10.4,5.2,14.9,20.8,29.7
	c13.2,12.5,15.1,25.2,12.1,33.2c7.3-17.5,3.8-32.7-8.8-49.9c-10.3-14.2-12.7-24.2-12.4-33c-4.7,0.8-8.8,0.1-11-0.6h0
	c-0.8,0.9-12.4,13.9-6.7,36.3c2.7,10.6,6,18.5,6.2,19.2c8,21,5.7,31.4,1.2,36.8c20.4-6.4,18.5-29.1,8.2-45.5
	C217.7,116.8,217.1,112.6,217,105.1 M166.9,238.1c0,0,6,3.9,16.4,10.3c21.4,13.2,66.4,23.3,92.9-3.2c26.6-26.6,10.5-71.5-10.2-72.7
	c14.7,7.5,22,61-28.6,73.1C199.5,254.6,166.9,238.1,166.9,238.1 M79,177.5c26.1-13.2,47.8-4,64.9,7.8c19.2,13.2,37.2,13.4,37.2,13.4
	c-7.4,3.7-24.9,1.4-37.1-3.2c-25.7-9.7-74-10.6-78.7,38.1c-3.3,34.3,20.5,63.2,52.6,67.4c-27.8-10.1-48-41.4-34.5-69.4
	c13.5-28,46.7-24.5,70.4-21.8c13.4,1.6,23.2,1.4,30.5,0.2c22.8-3.9,36.4-19.6,38.1-25.2c-8.8,7.6-31.4,13.1-53.6-2.4
	c-17.1-11.9-34.9-35.7-70-32.6c-16.8,1.5-31.8,11.5-42,27.3c5-19.3,17.9-42.9,42.5-47c39-6.6,60.6,24.5,60.6,24.5
	s-18.2-39.7-57.6-37.5c-40.2,2.3-60.7,37.5-64.9,80.3c-4.6,47,13.1,69.9,13.1,69.9c-0.1-0.3-0.3-0.7-0.4-1c-1.5-3.9-2.7-7.9-3.4-12
	C39.7,212.6,60.3,186.9,79,177.5 M181.7,261c-18.8-3.5-25.8-7.3-33.3-12c-7.4-4.8-15.8-7-24.4-6.6c13.8-14.6,32.6-7.6,33.1-7.3
	c-7.9-3.9-15.2-8.2-26.7-6.9c-12.6,1.4-17.9,11.1-16.8,18.9c3,22,38.2,12.9,38.2,12.9s-12.5,16.4-32.2,13.1
	c-7.2-1.2-12.1-4.5-15.2-8.8v0c6.4,9.8,15.9,15.7,32.4,15.4c15.9-0.3,22.3-6.8,33.5-14.6C173.6,262.7,178,260.8,181.7,261"/>
<path id="XMLID_1_" class="st2" d="M37,447.3v14.5H25.5c-0.3,0-0.4-0.1-0.4-0.4v-35.5l-3.2-4.2v-0.8c0-0.3,0.1-0.4,0.4-0.4h38.5
	c0.3,0,0.4,0.1,0.4,0.4v9H37v8h20.8c0.3,0,0.4,0.1,0.4,0.4v9H37z M82.4,429.9h5.4c8,0,11.7,1.9,11.7,5.9c0,4-3.7,5.9-11.7,5.9h-0.3
	c-0.3,0-0.4,0.1-0.4,0.4v3.4l14.2,16c0.3,0.3,0.5,0.4,0.7,0.4h13.4l-13.2-15c5.9-2.1,9.2-6.1,9.2-11.6c0-9-7.7-14.6-20.4-14.6H67.7
	c-0.3,0-0.4,0.1-0.4,0.4v0.7l3.2,4.2v35.5c0,0.3,0.1,0.4,0.4,0.4h11.5V429.9z M128.1,461.8c0.3,0,0.6-0.1,0.7-0.4l3.3-6.5h21.2
	l3.3,6.5c0.1,0.2,0.4,0.4,0.7,0.4h12.1L148,420.6h-10l-21.4,41.2H128.1 M136.5,446.2l6.2-12.1l6.2,12.1H136.5z M208.7,461.4
	c0.2,0.2,0.5,0.4,0.9,0.4h10.1v-40.8c0-0.3-0.1-0.4-0.4-0.4h-10.9v24.2l-22.7-24.2h-13.5c-0.3,0-0.4,0.1-0.4,0.4v0.7l3.2,4.2v35.5
	c0,0.3,0.1,0.4,0.4,0.4h10.9v-24.2L208.7,461.4z M228.1,441.2c0,12.6,11.1,21.6,26.6,21.6c6.1,0,11.4-0.8,15.5-2.6v-9.5
	c-5.3,2-9.7,2.9-14.9,2.9c-8.9,0-15-5-15-12.4c0-7.3,6.1-12.3,15-12.3c5,0,9.4,0.8,14.2,2.7v-9.6c-4.2-1.6-9.3-2.4-14.8-2.4
	C239.2,419.6,228.1,428.6,228.1,441.2 M312.5,436.5c0-0.3-0.1-0.4-0.4-0.4h-20.8v-6.2h24.2v-9c0-0.3-0.1-0.4-0.4-0.4h-38.5
	c-0.3,0-0.4,0.1-0.4,0.4v0.7l3.2,4.2v35.5c0,0.3,0.1,0.4,0.4,0.4h35.7v-9c0-0.3-0.1-0.4-0.4-0.4h-23.8v-6.9h21.2V436.5z M39.9,486.3
	h6.3c9.3,0,13.6,2.2,13.6,6.8s-4.3,6.8-13.6,6.8H46c-0.4,0-0.5,0.1-0.5,0.4v3.9L62.1,523c0.4,0.4,0.5,0.5,0.8,0.5h15.6L63.1,506
	c6.9-2.5,10.7-7.1,10.7-13.6c0-10.6-9-17.1-23.9-17.1H22.8c-0.4,0-0.4,0.1-0.4,0.4v0.9l3.7,4.9V523c0,0.4,0.1,0.5,0.5,0.5h13.4
	V486.3z M79.9,475.3c-0.4,0-0.4,0.1-0.4,0.5v0.9l3.7,4.9v18.1c0,16.4,9.1,25,26.6,25c17.5,0,26.7-8.5,26.7-25v-23.9
	c0-0.4-0.1-0.5-0.5-0.5h-13.4v22.9c0,10.4-4.3,15.6-12.8,15.6c-8.5,0-12.7-5.1-12.7-14.9v-23.2c0-0.4-0.1-0.5-0.4-0.5H79.9z
	 M176.2,524.6c8.5,0,16.1-1.3,22.8-4v-22.4h-16c-0.4,0-0.5,0.1-0.5,0.5v0.9l3.7,4.9v8.4c-2.9,0.7-6,1-9.3,1
	c-10.3,0-17.5-5.9-17.5-14.5c0-8.5,7.1-14.4,17.5-14.4c6.9,0,12.1,1.2,18.9,4v-11.2c-5.4-2.4-12.1-3.6-19.6-3.6
	c-18,0-31,10.6-31,25.2C145.2,514,158.2,524.6,176.2,524.6 M236,523.5c14.4,0,22.4-5.1,22.4-14.2c0-5.5-3.3-9.5-9.6-11.6
	c4.4-2.2,6.7-5.6,6.7-9.9c0-7.7-7.5-12.5-19.8-12.5h-28.2c-0.4,0-0.5,0.1-0.5,0.4v0.9l3.7,4.9V523c0,0.4,0.1,0.5,0.5,0.5H236
	 M224.3,485.5h9.2c5.8,0,8.5,1.3,8.5,4.1c0,2.8-2.7,4.1-8.5,4.1h-9.2V485.5z M224.3,503.9h10.3c6.9,0,10,1.5,10,4.7
	c0,3.2-3.1,4.7-10,4.7h-10.3V503.9z M293.7,506l21.4-30.6h-14.1c-0.4,0-0.7,0.2-0.8,0.4l-13,19.2l-13-19.2c-0.1-0.2-0.4-0.4-0.8-0.4
	h-14.9l21.4,30.6V523c0,0.4,0.1,0.5,0.4,0.5h13.4V506z"/>
</svg>
