<?xml version="1.0" encoding="UTF-8" standalone="no"?>
<svg
   xmlns:dc="http://purl.org/dc/elements/1.1/"
   xmlns:cc="http://creativecommons.org/ns#"
   xmlns:rdf="http://www.w3.org/1999/02/22-rdf-syntax-ns#"
   xmlns:svg="http://www.w3.org/2000/svg"
   xmlns="http://www.w3.org/2000/svg"
   viewBox="0 0 744 853.33331"
   height="853.33331"
   width="744"
   xml:space="preserve"
   id="svg2"
   version="1.1"><metadata
     id="metadata8"><rdf:RDF><cc:Work
         rdf:about=""><dc:format>image/svg+xml</dc:format><dc:type
           rdf:resource="http://purl.org/dc/dcmitype/StillImage" /></cc:Work></rdf:RDF></metadata><defs
     id="defs6" /><g
     transform="matrix(1.3333333,0,0,-1.3333333,0,853.33333)"
     id="g10"><g
       transform="scale(0.1)"
       id="g12"><path
         id="path14"
         style="fill:#ffffff;fill-opacity:1;fill-rule:nonzero;stroke:none"
         d="m 1878.63,3026.33 102.15,-920.28 556.88,-268.63 256.64,-99.14 734.92,309.3 102.15,3286.6 -1796.64,87.7" /><path
         id="path16"
         style="fill:#7b6e3e;fill-opacity:1;fill-rule:nonzero;stroke:none"
         d="m 5166.6,3444.41 c 0,0 -90.66,-132.69 -98.71,-183.51 -8.28,-50.9 -28.87,-70.78 -28.87,-70.78 0,0 -74.41,108.08 -99.1,137.34 -24.72,29.02 -82.22,100.59 -101.29,117.15 -18.83,16.72 -66.44,32.07 -66.44,32.07 0,0 -5.35,-42.11 4.02,-101.29 9.06,-59.06 9.73,-101.8 14.57,-129.26 4.22,-24.29 16.25,-91.72 21.17,-113.4 5.12,-21.56 0.98,-27.34 0.98,-27.34 0,0 -29.84,14.84 -50.51,62.38 -20.58,47.39 -32.89,73.17 -38.79,92.35 -5.78,19.22 -48.83,40.66 -48.83,40.66 0,0 -20.35,-48.24 -17.1,-119.69 3.24,-71.68 -3.25,-142.34 14.76,-201.6 18.09,-59.06 22.34,-71.68 7.46,-123.16 -14.76,-51.56 -26.56,-56.6 -25,-94.1 1.99,-37.5 1.99,-92.82 -0.58,-96.57 -12.7,-18.71 -5.12,-2.14 -64.89,-37.69 0,0 0,-143.83 3.75,-222.85 1.18,-22.78 -35.5,-40.86 -49.41,-49.34 -14.18,-8.28 -18.32,-18.32 -18.32,-18.32 0,0 0.82,-75.78 0.82,-108.16 0,-32.39 0.98,-68.32 -11.33,-108.28 -12.5,-39.89 -88.4,-139.18 -121.48,-165.79 -32.85,-26.68 -61.8,-70.85 -112.11,-100.7 -50.51,-30.12 -224.53,-69.88 -269.81,-94.18 -45.51,-24.14 -107.3,-74.14 -151.79,-133.01 -44.61,-59.33 -76.02,-106.91 -87.5,-111.71 -11.53,-5.12 -248.36,-192.47 -248.36,-192.47 0,0 231.79,-317.22 364.68,-366.25 132.89,-49.14 283.91,-95 326.64,-83.469 43.09,11.789 190.75,129.219 207.11,132.499 16.41,3.24 108.87,57.46 153.56,63.98 44.37,6.68 84.14,17.7 134.33,61.72 50.51,44.18 84.3,64.96 121.29,71.76 37.23,6.68 54.46,20.66 61.14,38.98 6.48,18.4 18.12,15.75 54.45,19.07 36.29,3.35 58.24,21.48 58.24,21.48 0,0 -25.19,10.23 -32.65,37.77 -7.31,27.5 22.42,35.67 57.89,69.1 35.23,33.21 91.64,98.17 126.87,134.77 35.51,36.64 67.11,58.28 67.11,58.28 0,0 -15.82,2.46 -25,16.76 -9.06,14.26 -11.41,10.82 31.41,86.52 42.93,75.9 128.47,205.71 196.09,327.78 64.38,116.44 80.63,169.41 99.53,214.41 18.99,44.88 33.75,135.74 33.75,135.74 0,0 -52.77,-22.34 -80.04,-43.12 -27.07,-20.86 -58.67,-31.02 -58.67,-31.02 0,0 -1.64,62.5 16.45,145 18.2,82.5 34.76,190 33.08,252.31 -1.68,62.5 -43.71,66.64 -46.05,102.26 -2.58,35.94 3.12,143.32 8.04,197.46 4.93,54.07 14.77,77.39 16.57,95 7.85,83.09 0.19,75.59 -0.63,101.1 0,0 -52.54,-13.79 -79.92,-76.1 -18.2,-41.32 -39.06,-79.25 -47.42,-85.04 -8.21,-5.89 -19.69,7.47 -24.73,34.93 -4.92,27.38 -39.18,133.28 -52.77,177.3 -15.43,50.31 -30.12,119.49 -34.92,141.95 -4.85,22.43 -42.74,68.32 -42.74,68.32" /><path
         id="path18"
         style="fill:none;stroke:#97854d;stroke-width:53.06729889;stroke-linecap:butt;stroke-linejoin:miter;stroke-miterlimit:4;stroke-dasharray:none;stroke-opacity:1"
         d="m 5166.6,3444.41 c 0,0 -90.66,-132.69 -98.71,-183.51 -8.28,-50.9 -28.87,-70.78 -28.87,-70.78 0,0 -74.41,108.08 -99.1,137.34 -24.72,29.02 -82.22,100.59 -101.29,117.15 -18.83,16.72 -66.44,32.07 -66.44,32.07 0,0 -5.35,-42.11 4.02,-101.29 9.06,-59.06 9.73,-101.8 14.57,-129.26 4.22,-24.29 16.25,-91.72 21.17,-113.4 5.12,-21.56 0.98,-27.34 0.98,-27.34 0,0 -29.84,14.84 -50.51,62.38 -20.58,47.39 -32.89,73.17 -38.79,92.35 -5.78,19.22 -48.83,40.66 -48.83,40.66 0,0 -20.35,-48.24 -17.1,-119.69 3.24,-71.68 -3.25,-142.34 14.76,-201.6 18.09,-59.06 22.34,-71.68 7.46,-123.16 -14.76,-51.56 -26.56,-56.6 -25,-94.1 1.99,-37.5 1.99,-92.82 -0.58,-96.57 -12.7,-18.71 -5.12,-2.14 -64.89,-37.69 0,0 0,-143.83 3.75,-222.85 1.18,-22.78 -35.5,-40.86 -49.41,-49.34 -14.18,-8.28 -18.32,-18.32 -18.32,-18.32 0,0 0.82,-75.78 0.82,-108.16 0,-32.39 0.98,-68.32 -11.33,-108.28 -12.5,-39.89 -88.4,-139.18 -121.48,-165.79 -32.85,-26.68 -61.8,-70.86 -112.11,-100.7 -50.51,-30.12 -224.53,-69.88 -269.81,-94.18 -45.51,-24.14 -107.3,-74.14 -151.79,-133.01 -44.61,-59.33 -76.02,-106.91 -87.5,-111.72 -11.53,-5.11 -248.36,-192.46 -248.36,-192.46 0,0 231.79,-317.22 364.68,-366.25 132.89,-49.14 283.91,-95 326.64,-83.469 43.09,11.789 190.75,129.219 207.11,132.499 16.41,3.24 108.87,57.46 153.56,63.98 44.37,6.68 84.14,17.7 134.33,61.72 50.51,44.18 84.3,64.96 121.29,71.76 37.23,6.68 54.46,20.66 61.14,38.98 6.48,18.4 18.12,15.74 54.45,19.07 36.29,3.35 58.24,21.48 58.24,21.48 0,0 -25.19,10.23 -32.65,37.77 -7.31,27.5 22.42,35.67 57.89,69.1 35.23,33.21 91.64,98.17 126.87,134.77 35.51,36.64 67.11,58.28 67.11,58.28 0,0 -15.82,2.46 -25,16.76 -9.06,14.26 -11.41,10.82 31.41,86.52 42.93,75.9 128.47,205.71 196.09,327.78 64.38,116.44 80.63,169.41 99.53,214.41 18.99,44.88 33.75,135.74 33.75,135.74 0,0 -52.77,-22.34 -80.04,-43.12 -27.07,-20.86 -58.67,-31.02 -58.67,-31.02 0,0 -1.64,62.5 16.45,145 18.2,82.5 34.76,190 33.08,252.31 -1.68,62.5 -43.71,66.64 -46.05,102.26 -2.58,35.94 3.12,143.32 8.04,197.46 4.93,54.07 14.77,77.39 16.57,95 7.85,83.09 0.19,75.59 -0.63,101.1 0,0 -52.54,-13.79 -79.92,-76.1 -18.2,-41.33 -39.06,-79.25 -47.42,-85.04 -8.21,-5.89 -19.69,7.46 -24.73,34.93 -4.92,27.38 -39.18,133.28 -52.77,177.3 -15.43,50.31 -30.12,119.49 -34.92,141.95 -4.85,22.43 -42.74,68.32 -42.74,68.32 z" /><path
         id="path20"
         style="fill:none;stroke:#97854d;stroke-width:43.11529922;stroke-linecap:butt;stroke-linejoin:miter;stroke-miterlimit:4;stroke-dasharray:none;stroke-opacity:1"
         d="m 3708.67,1121.29 c 0,0 300.51,149.73 359.69,179.73 59.45,29.84 205.9,108.78 336.44,176.32 130.51,67.5 547.43,344.14 591.61,390.2 44.22,46.37 145.5,193.24 150.11,228.55 5.04,35.28 25.2,216.18 30.04,251.41 4.73,35.35 -18.83,177.7 -26.01,209.49 -6.88,31.8 -152.27,149.73 -152.27,149.73 0,0 -55.04,143.2 -72.26,222.46 -17.5,79.26 -241.18,341.17 -241.18,341.17" /><path
         id="path22"
         style="fill:none;stroke:#97854d;stroke-width:43.11529922;stroke-linecap:butt;stroke-linejoin:miter;stroke-miterlimit:4;stroke-dasharray:none;stroke-opacity:1"
         d="m 5185.82,2402.34 c 0,0 -3.09,185.36 31.09,306.45 34.46,121.25 -59.45,111.91 -73.75,167.42 -14.14,55.51 -69.76,167.27 -83.94,230.55 -15.16,68.9 -31.72,66.56 -44.42,108.47" /><path
         id="path24"
         style="fill:none;stroke:#97854d;stroke-width:43.11529922;stroke-linecap:butt;stroke-linejoin:miter;stroke-miterlimit:4;stroke-dasharray:none;stroke-opacity:1"
         d="m 5223.98,2736.33 c 0,0 28.48,140.97 22.93,231.72 -5.5,90.78 -82.38,456.95 -82.38,456.95" /><path
         id="path26"
         style="fill:none;stroke:#97854d;stroke-width:43.11529922;stroke-linecap:butt;stroke-linejoin:miter;stroke-miterlimit:4;stroke-dasharray:none;stroke-opacity:1"
         d="m 5176.84,2383.63 c 0,0 68.32,52.66 96.56,87.42 28.16,34.77 188.83,211.65 188.83,211.65" /><path
         id="path28"
         style="fill:none;stroke:#97854d;stroke-width:43.11529922;stroke-linecap:butt;stroke-linejoin:miter;stroke-miterlimit:4;stroke-dasharray:none;stroke-opacity:1"
         d="m 4857.7,1784.65 c 0,0 -91.65,238.71 -98.72,266.37 -7.1,27.77 -28.16,268.63 -39.18,296.48 -11.01,27.97 -88.71,185.16 -116.95,210" /><path
         id="path30"
         style="fill:none;stroke:#97854d;stroke-width:43.11529922;stroke-linecap:butt;stroke-linejoin:miter;stroke-miterlimit:4;stroke-dasharray:none;stroke-opacity:1"
         d="m 5007.54,1643.4 c 0,0 3.55,34.84 0.78,82.19 -2.46,47.26 -51.29,127.38 -51.29,127.38 0,0 0.78,35.35 1.49,59.18 0.78,23.51 21.44,377.58 18.51,413.01 -2.97,35.66 -17.73,225.04 -77.58,321.21 -60.15,96.17 -201.91,194.41 -201.91,194.41" /><path
         id="path32"
         style="fill:none;stroke:#97854d;stroke-width:43.11529922;stroke-linecap:butt;stroke-linejoin:miter;stroke-miterlimit:4;stroke-dasharray:none;stroke-opacity:1"
         d="m 4734.65,2319.65 c 0,0 109.57,12.89 203.4,18.32 93.98,5.62 214.29,45.39 230.04,52.85" /><path
         id="path34"
         style="fill:none;stroke:#97854d;stroke-width:43.11529922;stroke-linecap:butt;stroke-linejoin:miter;stroke-miterlimit:4;stroke-dasharray:none;stroke-opacity:1"
         d="m 4531.88,1058.01 c 0,0 34.45,170.78 43.12,206.09 8.67,35.35 68.2,73.17 103.67,84.1 35.31,10.9 141.64,43.6 189.96,101.37 48.44,57.89 146.37,228.67 202.5,282.42 55.9,53.63 256.8,119.22 256.8,119.22" /><path
         id="path36"
         style="fill:none;stroke:#97854d;stroke-width:43.11529922;stroke-linecap:butt;stroke-linejoin:miter;stroke-miterlimit:4;stroke-dasharray:none;stroke-opacity:1"
         d="m 4632.97,1321.6 c 0,0 12.11,28.05 17.15,75.2 5,47.15 29.8,306.75 18.98,346.32 -11.52,42.7 -106.6,165.75 -128.94,239.58 -21.64,71.48 -31.21,125.11 -31.21,125.11" /><path
         id="path38"
         style="fill:none;stroke:#97854d;stroke-width:43.11529922;stroke-linecap:butt;stroke-linejoin:miter;stroke-miterlimit:4;stroke-dasharray:none;stroke-opacity:1"
         d="m 5091.99,2000.23 c 0,0 84.65,47.93 116.45,70.67 31.91,22.85 225.9,211.25 245.82,226.52" /><path
         id="path40"
         style="fill:none;stroke:#97854d;stroke-width:43.11529922;stroke-linecap:butt;stroke-linejoin:miter;stroke-miterlimit:4;stroke-dasharray:none;stroke-opacity:1"
         d="m 4257.73,1392.77 c 0,0 8.29,158.99 13.68,214.03 5.43,55.19 -43.09,219.61 -43.09,219.61" /><path
         id="path42"
         style="fill:none;stroke:#97854d;stroke-width:43.11529922;stroke-linecap:butt;stroke-linejoin:miter;stroke-miterlimit:4;stroke-dasharray:none;stroke-opacity:1"
         d="m 4041.09,1286.05 c 0,0 15.24,264.22 4.42,300.16 -10.63,35.74 12.5,180.82 12.5,180.82" /><path
         id="path44"
         style="fill:none;stroke:#97854d;stroke-width:43.11529922;stroke-linecap:butt;stroke-linejoin:miter;stroke-miterlimit:4;stroke-dasharray:none;stroke-opacity:1"
         d="m 3697.03,1132.23 6.92,131.79 c 0,0 32.46,50.51 50.58,148.56 18.32,97.81 92.03,191.83 92.03,191.83" /><path
         id="path46"
         style="fill:none;stroke:#97854d;stroke-width:43.11529922;stroke-linecap:butt;stroke-linejoin:miter;stroke-miterlimit:4;stroke-dasharray:none;stroke-opacity:1"
         d="m 4330.59,926.172 c 0,0 -5.24,25.117 -34.46,96.798 -29.53,71.76 -14.37,75.47 3.56,161.72 17.69,86.21 73.01,273.63 73.01,273.63" /><path
         id="path48"
         style="fill:none;stroke:#97854d;stroke-width:43.11529922;stroke-linecap:butt;stroke-linejoin:miter;stroke-miterlimit:4;stroke-dasharray:none;stroke-opacity:1"
         d="m 3993.13,901.172 16.17,40.348 c 0,0 41.72,105.24 43.08,160.39 1.49,55 51.68,215.16 51.68,215.16" /><path
         id="path50"
         style="fill:none;stroke:#97854d;stroke-width:43.11529922;stroke-linecap:butt;stroke-linejoin:miter;stroke-miterlimit:4;stroke-dasharray:none;stroke-opacity:1"
         d="m 4424.3,1501.37 c 0,0 20.66,171.87 13.79,207.38 -7,35.74 -43.83,242.85 -43.83,242.85" /><path
         id="path52"
         style="fill:none;stroke:#97854d;stroke-width:43.11529922;stroke-linecap:butt;stroke-linejoin:miter;stroke-miterlimit:4;stroke-dasharray:none;stroke-opacity:1"
         d="m 5097.7,1462.19 c 0,0 -66.45,-60.16 -125.32,-74.42 -58.86,-14.37 -210.35,-10.54 -210.35,-10.54" /><path
         id="path54"
         style="fill:none;stroke:#97854d;stroke-width:43.11529922;stroke-linecap:butt;stroke-linejoin:miter;stroke-miterlimit:4;stroke-dasharray:none;stroke-opacity:1"
         d="m 4729.06,2273.79 c 0,0 -101.6,-295.82 -117.03,-311.17 -15.27,-15.35 -43.51,-97.35 -43.51,-97.35 0,0 -63.52,-297.38 -72.47,-330.54" /><path
         id="path56"
         style="fill:none;stroke:#97854d;stroke-width:43.11529922;stroke-linecap:butt;stroke-linejoin:miter;stroke-miterlimit:4;stroke-dasharray:none;stroke-opacity:1"
         d="m 5028.79,3199.37 c 0,0 -57.38,-293.04 -57.38,-344.41 0,-51.29 -187.43,-389.8 -190.59,-513.63" /><path
         id="path58"
         style="fill:none;stroke:#97854d;stroke-width:43.11529922;stroke-linecap:butt;stroke-linejoin:miter;stroke-miterlimit:4;stroke-dasharray:none;stroke-opacity:1"
         d="m 4315.63,1419.84 c 0,0 196.48,-105.7 226.79,-117.81 30.24,-12.11 280.82,-75.62 296.02,-87.73" /><path
         id="path60"
         style="fill:#7b6e3e;fill-opacity:1;fill-rule:nonzero;stroke:none"
         d="m 420.59,3444.41 c 0,0 90.461,-132.69 98.711,-183.51 8.277,-50.9 28.859,-70.78 28.859,-70.78 0,0 74.219,108.08 99.031,137.34 24.688,29.02 82.188,100.59 101.168,117.15 19.102,16.72 66.641,32.07 66.641,32.07 0,0 5.039,-42.11 -4.02,-101.29 -9.07,-59.06 -9.851,-101.8 -14.57,-129.26 -4.34,-24.29 -16.449,-91.72 -21.371,-113.4 -5,-21.56 -0.859,-27.34 -0.859,-27.34 0,0 29.73,14.84 50.39,62.38 20.551,47.39 32.969,73.17 38.789,92.35 5.782,19.22 49.02,40.66 49.02,40.66 0,0 20.351,-48.24 17.031,-119.69 -3.359,-71.68 3.32,-142.34 -14.879,-201.6 -18.203,-59.06 -22.34,-71.68 -7.5,-123.16 14.879,-51.56 26.489,-56.6 24.731,-94.1 -1.684,-37.5 -1.684,-92.82 0.898,-96.57 12.57,-18.71 5,-2.14 64.84,-37.69 0,0 0,-143.83 -3.828,-222.85 -1.094,-22.78 35.428,-40.86 49.528,-49.34 13.95,-8.28 18.09,-18.32 18.09,-18.32 0,0 -0.78,-75.78 -0.78,-108.16 0,-32.39 -0.9,-68.32 11.64,-108.28 12.3,-39.89 88.16,-139.18 121.25,-165.79 32.97,-26.68 61.83,-70.85 112.23,-100.7 50.31,-30.12 224.41,-69.88 269.8,-94.18 45.39,-24.14 107.3,-74.14 151.91,-133.01 44.5,-59.33 75.86,-106.91 87.5,-111.71 11.41,-5.12 248.25,-192.47 248.25,-192.47 0,0 -231.92,-317.22 -364.81,-366.25 -132.89,-49.14 -283.67,-95 -326.72,-83.469 -42.89,11.789 -190.47,129.219 -207.11,132.499 -16.44,3.24 -108.86,57.46 -153.43,63.98 -44.61,6.68 -84.071,17.7 -134.5,61.72 -50.391,44.18 -84.059,64.96 -121.25,71.76 -37.11,6.68 -54.45,20.66 -61.051,38.98 -6.598,18.28 -18.199,15.75 -54.418,19.07 -36.321,3.35 -58.281,21.48 -58.281,21.48 0,0 25.199,10.23 32.699,37.77 7.461,27.5 -22.34,35.67 -57.699,69.1 -35.54,33.21 -91.641,98.17 -127.18,134.77 -35.551,36.64 -67.039,58.28 -67.039,58.28 0,0 15.859,2.46 25,16.76 8.949,14.26 11.527,10.82 -31.403,86.52 -43.007,75.9 -128.437,205.71 -196.097,327.78 -64.4494,116.44 -80.6213,169.41 -99.6018,214.41 -18.9883,44.88 -33.6797,135.74 -33.6797,135.74 0,0 52.7813,-22.34 80.0395,-43.12 27.269,-20.78 58.75,-31.02 58.75,-31.02 0,0 1.679,62.5 -16.52,145 -18.129,82.5 -34.648,190 -32.969,252.31 1.758,62.5 43.711,66.64 46.25,102.26 2.379,35.94 -3.242,143.32 -8.242,197.46 -5.039,54.07 -14.879,77.39 -16.449,95 -7.891,83.09 -0.109,75.59 0.473,101.1 0,0 52.699,-13.79 80.039,-76.1 18.199,-41.32 39.179,-79.25 47.461,-85.04 8.168,-5.89 19.769,7.47 24.687,34.93 5.039,27.38 39.371,133.28 52.973,177.3 15.347,50.31 29.918,119.49 34.84,141.95 4.918,22.43 42.738,68.32 42.738,68.32" /><path
         id="path62"
         style="fill:none;stroke:#97854d;stroke-width:53.06729889;stroke-linecap:butt;stroke-linejoin:miter;stroke-miterlimit:4;stroke-dasharray:none;stroke-opacity:1"
         d="m 420.59,3444.41 c 0,0 90.461,-132.69 98.711,-183.51 8.277,-50.9 28.859,-70.78 28.859,-70.78 0,0 74.219,108.08 99.031,137.34 24.688,29.02 82.188,100.59 101.168,117.15 19.102,16.72 66.641,32.07 66.641,32.07 0,0 5.039,-42.11 -4.02,-101.29 -9.07,-59.06 -9.851,-101.8 -14.57,-129.26 -4.34,-24.29 -16.449,-91.72 -21.371,-113.4 -5,-21.56 -0.859,-27.34 -0.859,-27.34 0,0 29.73,14.84 50.39,62.38 20.551,47.39 32.969,73.17 38.789,92.35 5.782,19.22 49.02,40.66 49.02,40.66 0,0 20.351,-48.24 17.031,-119.69 -3.359,-71.68 3.32,-142.34 -14.879,-201.6 -18.203,-59.06 -22.34,-71.68 -7.5,-123.16 14.879,-51.56 26.489,-56.6 24.731,-94.1 -1.684,-37.5 -1.684,-92.82 0.898,-96.57 12.57,-18.71 5,-2.14 64.84,-37.69 0,0 0,-143.83 -3.828,-222.85 -1.094,-22.78 35.428,-40.86 49.528,-49.34 13.95,-8.28 18.09,-18.32 18.09,-18.32 0,0 -0.78,-75.78 -0.78,-108.16 0,-32.39 -0.9,-68.32 11.64,-108.28 12.3,-39.89 88.16,-139.18 121.25,-165.79 32.97,-26.68 61.83,-70.86 112.23,-100.7 50.31,-30.12 224.41,-69.88 269.8,-94.18 45.39,-24.14 107.3,-74.14 151.91,-133.01 44.5,-59.33 75.86,-106.91 87.5,-111.72 11.41,-5.11 248.25,-192.46 248.25,-192.46 0,0 -231.92,-317.22 -364.81,-366.25 -132.89,-49.14 -283.67,-95 -326.72,-83.469 -42.89,11.789 -190.47,129.219 -207.11,132.499 -16.44,3.24 -108.86,57.46 -153.43,63.98 -44.61,6.68 -84.071,17.7 -134.5,61.72 -50.391,44.18 -84.059,64.96 -121.25,71.76 -37.11,6.68 -54.45,20.66 -61.051,38.98 -6.598,18.28 -18.199,15.74 -54.418,19.07 -36.321,3.35 -58.281,21.48 -58.281,21.48 0,0 25.199,10.23 32.699,37.77 7.461,27.5 -22.34,35.67 -57.699,69.1 -35.54,33.21 -91.641,98.17 -127.18,134.77 -35.551,36.64 -67.039,58.28 -67.039,58.28 0,0 15.859,2.46 25,16.76 8.949,14.26 11.527,10.82 -31.403,86.52 -43.007,75.9 -128.437,205.71 -196.097,327.78 -64.4494,116.44 -80.6213,169.41 -99.6018,214.41 -18.9883,44.88 -33.6797,135.74 -33.6797,135.74 0,0 52.7813,-22.34 80.0395,-43.12 27.269,-20.78 58.75,-31.02 58.75,-31.02 0,0 1.679,62.5 -16.52,145 -18.129,82.5 -34.648,190 -32.969,252.31 1.758,62.5 43.711,66.64 46.25,102.26 2.379,35.94 -3.242,143.32 -8.242,197.46 -5.039,54.07 -14.879,77.39 -16.449,95 -7.891,83.09 -0.109,75.59 0.473,101.1 0,0 52.699,-13.79 80.039,-76.1 18.199,-41.33 39.179,-79.25 47.461,-85.04 8.168,-5.89 19.769,7.46 24.687,34.93 5.039,27.38 39.371,133.28 52.973,177.3 15.347,50.31 29.918,119.49 34.84,141.95 4.918,22.43 42.738,68.32 42.738,68.32 z" /><path
         id="path64"
         style="fill:none;stroke:#97854d;stroke-width:43.11529922;stroke-linecap:butt;stroke-linejoin:miter;stroke-miterlimit:4;stroke-dasharray:none;stroke-opacity:1"
         d="m 902.34,3270.27 c 0,0 -223.668,-261.95 -241.09,-341.21 -17.5,-79.22 -72.461,-222.46 -72.461,-222.46 0,0 -145.269,-117.81 -152.269,-149.73 -6.989,-31.87 -30.7,-174.1 -25.782,-209.45 4.731,-35.15 25,-216.05 29.813,-251.4 4.84,-35.36 106.211,-182.31 150.23,-228.6 44.098,-46.05 461.169,-322.65 591.679,-390.19 130.55,-67.5 276.92,-146.49 336.37,-176.29 59.26,-30.04 359.88,-179.77 359.88,-179.77" /><path
         id="path66"
         style="fill:none;stroke:#97854d;stroke-width:43.11529922;stroke-linecap:butt;stroke-linejoin:miter;stroke-miterlimit:4;stroke-dasharray:none;stroke-opacity:1"
         d="m 572.379,3215.35 c -12.731,-41.95 -29.328,-39.57 -44.609,-108.48 -13.981,-63.32 -69.68,-175.03 -83.86,-230.54 -14.07,-55.55 -108.09,-46.17 -73.711,-167.46 34.332,-121.06 31.172,-306.41 31.172,-306.41" /><path
         id="path68"
         style="fill:none;stroke:#97854d;stroke-width:43.11529922;stroke-linecap:butt;stroke-linejoin:miter;stroke-miterlimit:4;stroke-dasharray:none;stroke-opacity:1"
         d="m 422.461,3425 c 0,0 -76.871,-366.17 -82.301,-456.95 -5.629,-90.75 23.039,-231.72 23.039,-231.72" /><path
         id="path70"
         style="fill:none;stroke:#97854d;stroke-width:43.11529922;stroke-linecap:butt;stroke-linejoin:miter;stroke-miterlimit:4;stroke-dasharray:none;stroke-opacity:1"
         d="m 124.879,2682.7 c 0,0 160.633,-177 188.91,-211.65 28.121,-34.76 96.441,-87.42 96.441,-87.42" /><path
         id="path72"
         style="fill:none;stroke:#97854d;stroke-width:43.11529922;stroke-linecap:butt;stroke-linejoin:miter;stroke-miterlimit:4;stroke-dasharray:none;stroke-opacity:1"
         d="m 984.219,2557.5 c -28.168,-24.84 -105.899,-182.03 -116.949,-210 -11.02,-27.85 -32.071,-268.63 -39.18,-296.48 -6.961,-27.66 -98.52,-266.37 -98.52,-266.37" /><path
         id="path74"
         style="fill:none;stroke:#97854d;stroke-width:43.11529922;stroke-linecap:butt;stroke-linejoin:miter;stroke-miterlimit:4;stroke-dasharray:none;stroke-opacity:1"
         d="m 889.801,2840.66 c 0,0 -141.832,-98.2 -201.75,-194.37 -60.082,-96.17 -74.731,-285.47 -77.781,-321.21 -2.969,-35.43 17.82,-389.53 18.402,-413.05 0.59,-23.71 1.558,-59.18 1.558,-59.18 0,0 -48.71,-80 -51.359,-127.34 -2.66,-47.35 0.777,-82.23 0.777,-82.23" /><path
         id="path76"
         style="fill:none;stroke:#97854d;stroke-width:43.11529922;stroke-linecap:butt;stroke-linejoin:miter;stroke-miterlimit:4;stroke-dasharray:none;stroke-opacity:1"
         d="m 419.102,2390.82 c 15.738,-7.46 136.058,-47.23 229.957,-52.85 93.793,-5.43 203.441,-18.32 203.441,-18.32" /><path
         id="path78"
         style="fill:none;stroke:#97854d;stroke-width:43.11529922;stroke-linecap:butt;stroke-linejoin:miter;stroke-miterlimit:4;stroke-dasharray:none;stroke-opacity:1"
         d="m 259.449,1851.09 c 0,0 200.781,-65.54 256.723,-119.22 56.019,-53.71 154.137,-224.53 202.457,-282.38 48.359,-57.81 154.652,-90.47 190,-101.4 35.43,-10.82 95.001,-48.72 103.641,-84.07 8.67,-35.35 43.04,-206.13 43.04,-206.13" /><path
         id="path80"
         style="fill:none;stroke:#97854d;stroke-width:43.11529922;stroke-linecap:butt;stroke-linejoin:miter;stroke-miterlimit:4;stroke-dasharray:none;stroke-opacity:1"
         d="m 1078.13,2107.73 c 0,0 -9.65,-53.67 -31.22,-125.11 -22.34,-73.83 -117.422,-196.88 -128.82,-239.61 -10.75,-39.46 13.789,-299.14 18.98,-346.29 5.039,-47.15 17.149,-75.2 17.149,-75.2" /><path
         id="path82"
         style="fill:none;stroke:#97854d;stroke-width:43.11529922;stroke-linecap:butt;stroke-linejoin:miter;stroke-miterlimit:4;stroke-dasharray:none;stroke-opacity:1"
         d="m 132.852,2297.3 c 19.957,-15.15 213.91,-203.55 245.777,-226.48 31.922,-22.66 116.57,-70.7 116.57,-70.7" /><path
         id="path84"
         style="fill:none;stroke:#97854d;stroke-width:43.11529922;stroke-linecap:butt;stroke-linejoin:miter;stroke-miterlimit:4;stroke-dasharray:none;stroke-opacity:1"
         d="m 1358.87,1826.41 c 0,0 -48.52,-164.5 -43.13,-219.61 5.43,-55.04 13.79,-214.03 13.79,-214.03" /><path
         id="path86"
         style="fill:none;stroke:#97854d;stroke-width:43.11529922;stroke-linecap:butt;stroke-linejoin:miter;stroke-miterlimit:4;stroke-dasharray:none;stroke-opacity:1"
         d="m 1529.26,1767.03 c 0,0 23.12,-145.08 12.42,-180.82 -10.82,-35.94 4.41,-300.16 4.41,-300.16" /><path
         id="path88"
         style="fill:none;stroke:#97854d;stroke-width:43.11529922;stroke-linecap:butt;stroke-linejoin:miter;stroke-miterlimit:4;stroke-dasharray:none;stroke-opacity:1"
         d="m 1740.51,1604.41 c 0,0 73.83,-94.02 91.95,-191.83 18.13,-98.05 50.59,-148.56 50.59,-148.56 l 7.11,-131.79" /><path
         id="path90"
         style="fill:none;stroke:#97854d;stroke-width:43.11529922;stroke-linecap:butt;stroke-linejoin:miter;stroke-miterlimit:4;stroke-dasharray:none;stroke-opacity:1"
         d="m 1214.38,1458.32 c 0,0 55.42,-187.42 73.12,-273.63 17.73,-86.25 32.97,-89.96 3.63,-161.72 -29.33,-71.798 -34.53,-96.798 -34.53,-96.798" /><path
         id="path92"
         style="fill:none;stroke:#97854d;stroke-width:43.11529922;stroke-linecap:butt;stroke-linejoin:miter;stroke-miterlimit:4;stroke-dasharray:none;stroke-opacity:1"
         d="m 1482.89,1316.99 c 0,0 50.31,-160.15 51.68,-215.19 1.41,-55.12 43.13,-160.351 43.13,-160.351 l 16.44,-40.359" /><path
         id="path94"
         style="fill:none;stroke:#97854d;stroke-width:43.11529922;stroke-linecap:butt;stroke-linejoin:miter;stroke-miterlimit:4;stroke-dasharray:none;stroke-opacity:1"
         d="m 1192.93,1951.72 c 0,0 -36.84,-207.15 -43.71,-242.85 -6.92,-35.55 13.55,-207.42 13.55,-207.42" /><path
         id="path96"
         style="fill:none;stroke:#97854d;stroke-width:43.11529922;stroke-linecap:butt;stroke-linejoin:miter;stroke-miterlimit:4;stroke-dasharray:none;stroke-opacity:1"
         d="m 825.039,1377.23 c 0,0 -151.367,-3.83 -210.238,10.54 -58.981,14.26 -125.313,74.42 -125.313,74.42" /><path
         id="path98"
         style="fill:none;stroke:#97854d;stroke-width:43.11529922;stroke-linecap:butt;stroke-linejoin:miter;stroke-miterlimit:4;stroke-dasharray:none;stroke-opacity:1"
         d="m 858.129,2273.79 c 0,0 101.672,-295.82 116.949,-311.17 15.434,-15.35 43.402,-97.35 43.402,-97.35 0,0 63.59,-297.38 72.65,-330.54" /><path
         id="path100"
         style="fill:none;stroke:#97854d;stroke-width:43.11529922;stroke-linecap:butt;stroke-linejoin:miter;stroke-miterlimit:4;stroke-dasharray:none;stroke-opacity:1"
         d="m 558.398,3199.37 c 0,0 57.461,-293.04 57.461,-344.41 0,-51.29 187.34,-389.8 190.391,-513.63" /><path
         id="path102"
         style="fill:none;stroke:#97854d;stroke-width:43.11529922;stroke-linecap:butt;stroke-linejoin:miter;stroke-miterlimit:4;stroke-dasharray:none;stroke-opacity:1"
         d="m 1271.45,1419.84 c 0,0 -196.37,-105.7 -226.61,-117.81 -30.19,-12.11 -280.93,-75.62 -296.09,-87.73" /><path
         id="path104"
         style="fill:#00539f;fill-opacity:1;fill-rule:nonzero;stroke:none"
         d="m 2807.46,805.121 c 0,0 173.87,0 369.92,-7.391 196.1,-7.3 453.52,-31.789 453.52,-31.789 0,0 7.26,-225.312 24.3,-308.711 17.14,-83.48 198.47,-149.609 338.12,-146.96 139.81,2.351 281.95,-14.68 502.42,-54.141 220.63,-38.981 441.02,-222.9688 441.02,-222.9688 l -166.45,470.6288 558.71,58.789 c 0,0 -125.11,90.742 -303.98,174.024 -178.95,83.277 -414.1,122.66 -561.09,129.918 -147.15,7.109 -411.76,-17.219 -411.76,-17.219 0,0 -2.35,164.099 -7.27,230.349 -4.92,66.13 -14.57,284.3 -14.57,284.3 0,0 -193.71,61.32 -504.88,100.39 -311.25,39.29 -730.2,41.64 -730.2,41.64 h -2.38 c 0,0 -419.02,-2.27 -730.27,-41.64 -311.29,-38.99 -504.69,-100.39 -504.69,-100.39 0,0 -9.84,-218.17 -14.77,-284.3 -4.92,-66.25 -7.3,-230.349 -7.3,-230.349 0,0 -264.61,24.328 -411.64,17.219 C 977.031,859.262 741.879,819.77 563.129,736.602 384.141,653.32 259.141,562.578 259.141,562.578 L 817.852,503.789 651.211,33.1602 c 0,0 220.59,183.8708 441.089,222.9688 220.59,39.383 362.74,56.492 502.35,54.141 139.65,-2.571 321.09,63.601 338.2,146.96 17.23,83.399 24.53,308.711 24.53,308.711 0,0 257.39,24.489 453.21,31.789 196.17,7.391 370.19,7.391 370.19,7.391" /><path
         id="path106"
         style="fill:none;stroke:#97854d;stroke-width:66.33599854;stroke-linecap:butt;stroke-linejoin:miter;stroke-miterlimit:4;stroke-dasharray:none;stroke-opacity:1"
         d="m 2807.46,805.121 c 0,0 173.87,0 369.92,-7.391 196.1,-7.3 453.52,-31.789 453.52,-31.789 0,0 7.26,-225.32 24.3,-308.711 17.14,-83.48 198.47,-149.609 338.12,-146.96 139.81,2.351 281.95,-14.68 502.42,-54.141 220.63,-38.977 441.02,-222.9688 441.02,-222.9688 l -166.45,470.6288 558.71,58.793 c 0,0 -125.11,90.738 -303.98,174.02 -178.95,83.277 -414.1,122.66 -561.09,129.918 -147.15,7.109 -411.76,-17.219 -411.76,-17.219 0,0 -2.35,164.099 -7.27,230.349 -4.92,66.13 -14.57,284.3 -14.57,284.3 0,0 -193.71,61.32 -504.88,100.39 -311.25,39.29 -730.2,41.64 -730.2,41.64 h -2.38 c 0,0 -419.02,-2.27 -730.27,-41.64 -311.29,-38.99 -504.69,-100.39 -504.69,-100.39 0,0 -9.84,-218.17 -14.77,-284.3 -4.92,-66.25 -7.3,-230.349 -7.3,-230.349 0,0 -264.61,24.328 -411.64,17.219 C 977.031,859.262 741.879,819.77 563.129,736.602 384.141,653.32 259.141,562.582 259.141,562.582 L 817.852,503.789 651.211,33.1602 c 0,0 220.59,183.8708 441.089,222.9688 220.59,39.383 362.74,56.492 502.35,54.141 139.65,-2.571 321.09,63.601 338.2,146.96 17.23,83.391 24.53,308.711 24.53,308.711 0,0 257.39,24.489 453.21,31.789 196.17,7.391 370.19,7.391 370.19,7.391 z" /><path
         id="path108"
         style="fill:none;stroke:#97854d;stroke-width:66.33650208;stroke-linecap:butt;stroke-linejoin:miter;stroke-miterlimit:4;stroke-dasharray:none;stroke-opacity:1"
         d="m 1974.3,765.941 c 0,0 -220.71,-13.601 -290.28,-24.339 -63.79,-10.043 -152.3,-29.223 -152.3,-96.442 0,-86.328 95.7,-78.871 200.94,-78.871 105.31,0 220.47,-3.129 220.47,-3.129" /><path
         id="path110"
         style="fill:none;stroke:#97854d;stroke-width:66.33650208;stroke-linecap:butt;stroke-linejoin:miter;stroke-miterlimit:4;stroke-dasharray:none;stroke-opacity:1"
         d="m 1535.66,834.449 c 0,0 -6.01,-140 -4.33,-187.808" /><path
         id="path112"
         style="fill:none;stroke:#97854d;stroke-width:66.33650208;stroke-linecap:butt;stroke-linejoin:miter;stroke-miterlimit:4;stroke-dasharray:none;stroke-opacity:1"
         d="m 3613.09,766.91 c 0,0 221.48,-14.25 290.86,-25 63.78,-10.23 152.38,-29.328 152.38,-96.75 0,-86.25 -95.67,-78.558 -201.02,-78.558 -105.19,0 -220.39,-3.243 -220.39,-3.243" /><path
         id="path114"
         style="fill:none;stroke:#97854d;stroke-width:66.33650208;stroke-linecap:butt;stroke-linejoin:miter;stroke-miterlimit:4;stroke-dasharray:none;stroke-opacity:1"
         d="m 4053.4,818.711 c 0,0 5,-123.941 3.32,-172.07" /><path
         id="path116"
         style="fill:#97854d;fill-opacity:1;fill-rule:nonzero;stroke:none"
         d="m 1691.6,1290.7 124.03,10.32 35.35,-426.02 -123.95,-10.16" /><path
         id="path118"
         style="fill:#97854d;fill-opacity:1;fill-rule:nonzero;stroke:none"
         d="m 1917.42,1314.22 376.72,27.46 7.58,-105.04 -126.33,-8.83 23.44,-321.521 -124.14,-9.019 -23.32,321.28 -126.17,-9.17" /><path
         id="path120"
         style="fill:#97854d;fill-opacity:1;fill-rule:nonzero;stroke:none"
         d="m 2624.18,997.148 -141.64,-3.707 -17.54,-70.902 -127.27,-3.359 139.97,431.17 136.05,3.75 162.42,-423.202 -130.04,-3.437 m -50.78,161.519 -48.05,152.5 -40.07,-154.96 z" /><path
         id="path122"
         style="fill:#97854d;fill-opacity:1;fill-rule:nonzero;stroke:none"
         d="m 2870.98,1360.08 124.41,-3.24 -8.48,-322.19 194.14,-5 -2.89,-105.31 -318.43,8.359" /><path
         id="path124"
         style="fill:#97854d;fill-opacity:1;fill-rule:nonzero;stroke:none"
         d="m 3298.16,1342.38 124.34,-6.79 -23.44,-426.719 -124.22,6.68" /><path
         id="path126"
         style="fill:#97854d;fill-opacity:1;fill-rule:nonzero;stroke:none"
         d="m 3780.51,948.828 -140.94,14.262 -26.6,-67.891 -126.68,12.77 193.44,409.881 135.54,-13.67 107.7,-440.508 -129.38,13.09 m -30.19,166.678 -28.36,157.5 -59.14,-148.67 z" /><path
         id="path128"
         style="fill:#009367;fill-opacity:1;fill-rule:nonzero;stroke:none"
         d="m 1083.44,3091.09 81.72,-198.32 129.72,-213.04 263.91,-316.06 291.56,-226.99 349.18,-190.39 V 5210.94 H 1083.44" /><path
         id="path130"
         style="fill:#d71920;fill-opacity:1;fill-rule:nonzero;stroke:none"
         d="m 4459.84,3091.09 -81.79,-198.32 -129.77,-213.04 -263.9,-316.06 -291.57,-226.99 -349.06,-190.39 v 3264.65 h 1116.09" /><path
         id="path132"
         style="fill:#00539f;fill-opacity:1;fill-rule:nonzero;stroke:none"
         d="M 1083.44,6300.04 H 4503.63 V 5201.99 H 1083.44 Z" /><path
         id="path134"
         style="fill:none;stroke:#97854d;stroke-width:165.84599304;stroke-linecap:butt;stroke-linejoin:miter;stroke-miterlimit:4;stroke-dasharray:none;stroke-opacity:1"
         d="m 2794.3,1738.28 c 0,0 147.85,52.85 255.93,99.22 99.61,42.73 355.04,132.81 753.52,398.4 636.68,424.45 698.01,1016.05 698.01,1261.76 V 6317.07 H 2799.49 2788.36 1086.09 V 3497.66 c 0,-245.71 61.53,-837.31 698.05,-1261.76 398.56,-265.59 653.99,-355.67 753.63,-398.4 108.17,-46.37 255.82,-99.22 255.82,-99.22 z" /><path
         id="path136"
         style="fill:none;stroke:#97854d;stroke-width:165.84599304;stroke-linecap:butt;stroke-linejoin:miter;stroke-miterlimit:4;stroke-dasharray:none;stroke-opacity:1"
         d="m 1078.91,5216.95 h 3420" /><path
         id="path138"
         style="fill:#97854d;fill-opacity:1;fill-rule:nonzero;stroke:none"
         d="m 1475.51,6087.42 h 513.28 v -144.8 h -305.66 v -117.03 h 261.83 v -136.06 h -261.83 v -273.44 h -207.62" /><path
         id="path140"
         style="fill:#97854d;fill-opacity:1;fill-rule:nonzero;stroke:none"
         d="m 2153.67,5575.55 h 169.69 v -159.46 h -169.69 z" /><path
         id="path142"
         style="fill:#97854d;fill-opacity:1;fill-rule:nonzero;stroke:none"
         d="m 2512.93,6087.42 h 207.62 v -671.33 h -207.62 z" /><path
         id="path144"
         style="fill:#97854d;fill-opacity:1;fill-rule:nonzero;stroke:none"
         d="m 2923.44,5575.55 h 169.69 v -159.46 h -169.69 z" /><path
         id="path146"
         style="fill:#97854d;fill-opacity:1;fill-rule:nonzero;stroke:none"
         d="m 3276.84,5416.09 v 671.33 h 345.58 c 64.1,0 113.13,-5.51 146.76,-16.44 34.06,-11.02 61.33,-31.41 81.91,-61.21 20.98,-29.85 31.1,-66.06 31.1,-108.87 0,-37.31 -7.85,-69.49 -23.79,-96.49 -15.98,-26.95 -37.93,-49.02 -65.78,-65.74 -17.7,-10.74 -42.31,-19.61 -73.24,-26.68 24.6,-8.28 42.53,-16.56 53.67,-24.92 7.85,-5.51 18.79,-17.3 33.04,-35.43 14.38,-18.12 24.14,-32.07 29.07,-41.91 l 101.29,-193.64 h -234.38 l -110.66,204.85 c -14.14,26.56 -26.68,43.71 -37.7,51.68 -14.84,10.23 -31.87,15.54 -50.9,15.54 h -18.47 v -272.07 m 0.07,399.26 h 88.01 c 9.53,0 27.97,3.05 55.31,9.06 13.91,2.74 25.12,9.73 33.87,21.06 8.87,11.21 13.09,24.22 13.09,38.79 0,21.56 -6.8,38.2 -20.74,49.69 -13.79,11.64 -39.57,17.42 -77.7,17.42 h -91.72 v -136.02 z" /><path
         id="path148"
         style="fill:#97854d;fill-opacity:1;fill-rule:nonzero;stroke:none"
         d="m 4057.42,5575.55 h 169.81 v -159.46 h -169.81 z" /></g></g></svg>