<?xml version="1.0" encoding="UTF-8" standalone="no"?>
<!-- Created with Inkscape (http://www.inkscape.org/) -->

<svg
   xmlns:dc="http://purl.org/dc/elements/1.1/"
   xmlns:cc="http://creativecommons.org/ns#"
   xmlns:rdf="http://www.w3.org/1999/02/22-rdf-syntax-ns#"
   xmlns:svg="http://www.w3.org/2000/svg"
   xmlns="http://www.w3.org/2000/svg"
   xmlns:xlink="http://www.w3.org/1999/xlink"
   xmlns:sodipodi="http://sodipodi.sourceforge.net/DTD/sodipodi-0.dtd"
   xmlns:inkscape="http://www.inkscape.org/namespaces/inkscape"
   id="svg2"
   version="1.1"
   inkscape:version="0.47 r22583"
   width="99.235703"
   height="92.056519"
   sodipodi:docname="Scottish_Rugby_team_logo.svg"
   style="display:inline">
  <metadata
     id="metadata8">
    <rdf:RDF>
      <cc:Work
         rdf:about="">
        <dc:format>image/svg+xml</dc:format>
        <dc:type
           rdf:resource="http://purl.org/dc/dcmitype/StillImage" />
        <dc:title />
      </cc:Work>
    </rdf:RDF>
  </metadata>
  <defs
     id="defs6">
    <inkscape:perspective
       sodipodi:type="inkscape:persp3d"
       inkscape:vp_x="0 : 0.5 : 1"
       inkscape:vp_y="0 : 1000 : 0"
       inkscape:vp_z="1 : 0.5 : 1"
       inkscape:persp3d-origin="0.5 : 0.33333333 : 1"
       id="perspective10" />
    <inkscape:perspective
       id="perspective2835"
       inkscape:persp3d-origin="0.5 : 0.33333333 : 1"
       inkscape:vp_z="1 : 0.5 : 1"
       inkscape:vp_y="0 : 1000 : 0"
       inkscape:vp_x="0 : 0.5 : 1"
       sodipodi:type="inkscape:persp3d" />
    <inkscape:perspective
       id="perspective2857"
       inkscape:persp3d-origin="0.5 : 0.33333333 : 1"
       inkscape:vp_z="1 : 0.5 : 1"
       inkscape:vp_y="0 : 1000 : 0"
       inkscape:vp_x="0 : 0.5 : 1"
       sodipodi:type="inkscape:persp3d" />
    <inkscape:perspective
       id="perspective2882"
       inkscape:persp3d-origin="0.5 : 0.33333333 : 1"
       inkscape:vp_z="1 : 0.5 : 1"
       inkscape:vp_y="0 : 1000 : 0"
       inkscape:vp_x="0 : 0.5 : 1"
       sodipodi:type="inkscape:persp3d" />
    <inkscape:perspective
       id="perspective3711"
       inkscape:persp3d-origin="0.5 : 0.33333333 : 1"
       inkscape:vp_z="1 : 0.5 : 1"
       inkscape:vp_y="0 : 1000 : 0"
       inkscape:vp_x="0 : 0.5 : 1"
       sodipodi:type="inkscape:persp3d" />
    <inkscape:perspective
       id="perspective3772"
       inkscape:persp3d-origin="0.5 : 0.33333333 : 1"
       inkscape:vp_z="1 : 0.5 : 1"
       inkscape:vp_y="0 : 1000 : 0"
       inkscape:vp_x="0 : 0.5 : 1"
       sodipodi:type="inkscape:persp3d" />
    <inkscape:perspective
       id="perspective2839"
       inkscape:persp3d-origin="0.5 : 0.33333333 : 1"
       inkscape:vp_z="1 : 0.5 : 1"
       inkscape:vp_y="0 : 1000 : 0"
       inkscape:vp_x="0 : 0.5 : 1"
       sodipodi:type="inkscape:persp3d" />
    <inkscape:perspective
       id="perspective2861"
       inkscape:persp3d-origin="0.5 : 0.33333333 : 1"
       inkscape:vp_z="1 : 0.5 : 1"
       inkscape:vp_y="0 : 1000 : 0"
       inkscape:vp_x="0 : 0.5 : 1"
       sodipodi:type="inkscape:persp3d" />
    <inkscape:perspective
       id="perspective2887"
       inkscape:persp3d-origin="0.5 : 0.33333333 : 1"
       inkscape:vp_z="1 : 0.5 : 1"
       inkscape:vp_y="0 : 1000 : 0"
       inkscape:vp_x="0 : 0.5 : 1"
       sodipodi:type="inkscape:persp3d" />
    <inkscape:perspective
       id="perspective2850"
       inkscape:persp3d-origin="0.5 : 0.33333333 : 1"
       inkscape:vp_z="1 : 0.5 : 1"
       inkscape:vp_y="0 : 1000 : 0"
       inkscape:vp_x="0 : 0.5 : 1"
       sodipodi:type="inkscape:persp3d" />
    <inkscape:perspective
       id="perspective2872"
       inkscape:persp3d-origin="0.5 : 0.33333333 : 1"
       inkscape:vp_z="1 : 0.5 : 1"
       inkscape:vp_y="0 : 1000 : 0"
       inkscape:vp_x="0 : 0.5 : 1"
       sodipodi:type="inkscape:persp3d" />
    <inkscape:perspective
       id="perspective2897"
       inkscape:persp3d-origin="0.5 : 0.33333333 : 1"
       inkscape:vp_z="1 : 0.5 : 1"
       inkscape:vp_y="0 : 1000 : 0"
       inkscape:vp_x="0 : 0.5 : 1"
       sodipodi:type="inkscape:persp3d" />
    <inkscape:perspective
       id="perspective2919"
       inkscape:persp3d-origin="0.5 : 0.33333333 : 1"
       inkscape:vp_z="1 : 0.5 : 1"
       inkscape:vp_y="0 : 1000 : 0"
       inkscape:vp_x="0 : 0.5 : 1"
       sodipodi:type="inkscape:persp3d" />
    <inkscape:perspective
       id="perspective2919-0"
       inkscape:persp3d-origin="0.5 : 0.33333333 : 1"
       inkscape:vp_z="1 : 0.5 : 1"
       inkscape:vp_y="0 : 1000 : 0"
       inkscape:vp_x="0 : 0.5 : 1"
       sodipodi:type="inkscape:persp3d" />
    <inkscape:perspective
       id="perspective2919-6"
       inkscape:persp3d-origin="0.5 : 0.33333333 : 1"
       inkscape:vp_z="1 : 0.5 : 1"
       inkscape:vp_y="0 : 1000 : 0"
       inkscape:vp_x="0 : 0.5 : 1"
       sodipodi:type="inkscape:persp3d" />
    <inkscape:perspective
       id="perspective2919-1"
       inkscape:persp3d-origin="0.5 : 0.33333333 : 1"
       inkscape:vp_z="1 : 0.5 : 1"
       inkscape:vp_y="0 : 1000 : 0"
       inkscape:vp_x="0 : 0.5 : 1"
       sodipodi:type="inkscape:persp3d" />
    <inkscape:perspective
       id="perspective2968"
       inkscape:persp3d-origin="0.5 : 0.33333333 : 1"
       inkscape:vp_z="1 : 0.5 : 1"
       inkscape:vp_y="0 : 1000 : 0"
       inkscape:vp_x="0 : 0.5 : 1"
       sodipodi:type="inkscape:persp3d" />
    <inkscape:perspective
       id="perspective3010"
       inkscape:persp3d-origin="0.5 : 0.33333333 : 1"
       inkscape:vp_z="1 : 0.5 : 1"
       inkscape:vp_y="0 : 1000 : 0"
       inkscape:vp_x="0 : 0.5 : 1"
       sodipodi:type="inkscape:persp3d" />
    <inkscape:perspective
       id="perspective3010-2"
       inkscape:persp3d-origin="0.5 : 0.33333333 : 1"
       inkscape:vp_z="1 : 0.5 : 1"
       inkscape:vp_y="0 : 1000 : 0"
       inkscape:vp_x="0 : 0.5 : 1"
       sodipodi:type="inkscape:persp3d" />
    <inkscape:perspective
       id="perspective3010-1"
       inkscape:persp3d-origin="0.5 : 0.33333333 : 1"
       inkscape:vp_z="1 : 0.5 : 1"
       inkscape:vp_y="0 : 1000 : 0"
       inkscape:vp_x="0 : 0.5 : 1"
       sodipodi:type="inkscape:persp3d" />
    <inkscape:perspective
       id="perspective3010-3"
       inkscape:persp3d-origin="0.5 : 0.33333333 : 1"
       inkscape:vp_z="1 : 0.5 : 1"
       inkscape:vp_y="0 : 1000 : 0"
       inkscape:vp_x="0 : 0.5 : 1"
       sodipodi:type="inkscape:persp3d" />
    <inkscape:perspective
       id="perspective3010-7"
       inkscape:persp3d-origin="0.5 : 0.33333333 : 1"
       inkscape:vp_z="1 : 0.5 : 1"
       inkscape:vp_y="0 : 1000 : 0"
       inkscape:vp_x="0 : 0.5 : 1"
       sodipodi:type="inkscape:persp3d" />
    <inkscape:perspective
       id="perspective3010-21"
       inkscape:persp3d-origin="0.5 : 0.33333333 : 1"
       inkscape:vp_z="1 : 0.5 : 1"
       inkscape:vp_y="0 : 1000 : 0"
       inkscape:vp_x="0 : 0.5 : 1"
       sodipodi:type="inkscape:persp3d" />
    <inkscape:perspective
       id="perspective3089"
       inkscape:persp3d-origin="0.5 : 0.33333333 : 1"
       inkscape:vp_z="1 : 0.5 : 1"
       inkscape:vp_y="0 : 1000 : 0"
       inkscape:vp_x="0 : 0.5 : 1"
       sodipodi:type="inkscape:persp3d" />
    <inkscape:perspective
       id="perspective3111"
       inkscape:persp3d-origin="0.5 : 0.33333333 : 1"
       inkscape:vp_z="1 : 0.5 : 1"
       inkscape:vp_y="0 : 1000 : 0"
       inkscape:vp_x="0 : 0.5 : 1"
       sodipodi:type="inkscape:persp3d" />
    <inkscape:perspective
       id="perspective3133"
       inkscape:persp3d-origin="0.5 : 0.33333333 : 1"
       inkscape:vp_z="1 : 0.5 : 1"
       inkscape:vp_y="0 : 1000 : 0"
       inkscape:vp_x="0 : 0.5 : 1"
       sodipodi:type="inkscape:persp3d" />
    <inkscape:perspective
       id="perspective3133-6"
       inkscape:persp3d-origin="0.5 : 0.33333333 : 1"
       inkscape:vp_z="1 : 0.5 : 1"
       inkscape:vp_y="0 : 1000 : 0"
       inkscape:vp_x="0 : 0.5 : 1"
       sodipodi:type="inkscape:persp3d" />
    <inkscape:perspective
       id="perspective3133-3"
       inkscape:persp3d-origin="0.5 : 0.33333333 : 1"
       inkscape:vp_z="1 : 0.5 : 1"
       inkscape:vp_y="0 : 1000 : 0"
       inkscape:vp_x="0 : 0.5 : 1"
       sodipodi:type="inkscape:persp3d" />
    <inkscape:perspective
       id="perspective3246"
       inkscape:persp3d-origin="0.5 : 0.33333333 : 1"
       inkscape:vp_z="1 : 0.5 : 1"
       inkscape:vp_y="0 : 1000 : 0"
       inkscape:vp_x="0 : 0.5 : 1"
       sodipodi:type="inkscape:persp3d" />
    <inkscape:perspective
       id="perspective3270"
       inkscape:persp3d-origin="0.5 : 0.33333333 : 1"
       inkscape:vp_z="1 : 0.5 : 1"
       inkscape:vp_y="0 : 1000 : 0"
       inkscape:vp_x="0 : 0.5 : 1"
       sodipodi:type="inkscape:persp3d" />
    <inkscape:perspective
       id="perspective3270-6"
       inkscape:persp3d-origin="0.5 : 0.33333333 : 1"
       inkscape:vp_z="1 : 0.5 : 1"
       inkscape:vp_y="0 : 1000 : 0"
       inkscape:vp_x="0 : 0.5 : 1"
       sodipodi:type="inkscape:persp3d" />
    <inkscape:perspective
       id="perspective3270-0"
       inkscape:persp3d-origin="0.5 : 0.33333333 : 1"
       inkscape:vp_z="1 : 0.5 : 1"
       inkscape:vp_y="0 : 1000 : 0"
       inkscape:vp_x="0 : 0.5 : 1"
       sodipodi:type="inkscape:persp3d" />
    <inkscape:perspective
       id="perspective3270-00"
       inkscape:persp3d-origin="0.5 : 0.33333333 : 1"
       inkscape:vp_z="1 : 0.5 : 1"
       inkscape:vp_y="0 : 1000 : 0"
       inkscape:vp_x="0 : 0.5 : 1"
       sodipodi:type="inkscape:persp3d" />
  </defs>
  <sodipodi:namedview
     pagecolor="#ffffff"
     bordercolor="#666666"
     borderopacity="1"
     objecttolerance="10"
     gridtolerance="10"
     guidetolerance="10"
     inkscape:pageopacity="0"
     inkscape:pageshadow="2"
     inkscape:window-width="1680"
     inkscape:window-height="976"
     id="namedview4"
     showgrid="false"
     inkscape:zoom="2.2912622"
     inkscape:cx="18.14061"
     inkscape:cy="-2.8418613"
     inkscape:window-x="0"
     inkscape:window-y="25"
     inkscape:window-maximized="1"
     inkscape:current-layer="layer2" />
  <g
     inkscape:groupmode="layer"
     id="layer2"
     inkscape:label="Calque#1"
     style="display:inline"
     transform="translate(-0.76377111,-5.0162732)">
    <path
       style="fill:#063a69;fill-opacity:1;stroke:none"
       d="M 49.1875 0 C 34.04261 0.0265094 22.56779 7.273416 15.46875 15.78125 C 21.155421 16.802444 25.875626 19.177177 29.25 25.25 C 31.278547 23.804909 33.439859 22.507848 35.71875 21.34375 C 39.828881 19.244222 44.086029 17.738558 48.3125 16.8125 C 47.636254 13.026447 45.766022 11.435109 49.1875 0 z M 48.3125 16.8125 C 49.262241 16.604403 50.212379 16.43171 51.15625 16.28125 C 50.214105 16.431391 49.260581 16.604767 48.3125 16.8125 z M 51.15625 16.28125 C 52.100121 16.13079 53.035105 15.999589 53.96875 15.90625 C 53.037031 15.999325 52.098221 16.131137 51.15625 16.28125 z M 57.375 15.6875 C 57.180075 15.692611 56.976961 15.71108 56.78125 15.71875 C 57.562837 15.688056 58.325665 15.677588 59.09375 15.6875 C 58.516797 15.679894 57.959776 15.672168 57.375 15.6875 z M 59.625 15.6875 C 61.132895 15.725399 62.625009 15.868788 64.0625 16.0625 C 62.620065 15.86661 61.138514 15.726148 59.625 15.6875 z M 64.15625 16.0625 C 64.639731 16.129342 65.119884 16.196898 65.59375 16.28125 C 65.118779 16.197197 64.640858 16.128994 64.15625 16.0625 z M 67.375 16.625 C 68.095176 16.790495 68.776915 17.011105 69.46875 17.21875 C 68.779594 17.011348 68.092302 16.790538 67.375 16.625 z M 71.0625 17.75 C 71.646001 17.960595 72.223349 18.163907 72.78125 18.40625 C 72.225684 18.165342 71.643458 17.959433 71.0625 17.75 z M 73 18.5 C 73.359065 18.659324 73.714975 18.827459 74.0625 19 C 73.714529 18.826927 73.359539 18.659821 73 18.5 z M 75.09375 19.53125 C 75.429192 19.716945 75.770936 19.926217 76.09375 20.125 C 75.766876 19.923121 75.433587 19.7197 75.09375 19.53125 z M 77.09375 20.78125 C 77.883054 21.325141 78.615703 21.903164 79.3125 22.53125 C 78.619727 21.906922 77.878129 21.3222 77.09375 20.78125 z M 80.3125 23.5 C 80.589708 23.786897 80.866787 24.072904 81.125 24.375 C 80.865256 24.070773 80.591527 23.788785 80.3125 23.5 z M 81.25 24.53125 C 81.547611 24.88683 81.823233 25.248861 82.09375 25.625 C 81.827448 25.255047 81.542572 24.881246 81.25 24.53125 z M 82.09375 25.625 C 82.364267 26.001139 82.632711 26.384692 82.875 26.78125 C 82.631959 26.383497 82.365229 26.002146 82.09375 25.625 z M 29.25 25.28125 C 28.784848 25.612853 28.325877 25.936888 27.875 26.28125 C 28.322663 25.939545 28.788286 25.610402 29.25 25.28125 z M 26.5625 27.34375 C 26.131863 27.695316 25.697194 28.043711 25.28125 28.40625 C 25.699606 28.041644 26.12929 27.697272 26.5625 27.34375 z M 25.28125 28.40625 C 24.569931 29.026241 23.885534 29.663283 23.21875 30.3125 C 23.886525 29.662345 24.568824 29.027144 25.28125 28.40625 z M 21.53125 32.03125 C 20.859968 32.751086 20.209573 33.473272 19.59375 34.21875 C 20.209628 33.473627 20.859951 32.750779 21.53125 32.03125 z M 19.59375 34.21875 C 19.25712 34.626254 18.944498 35.054613 18.625 35.46875 C 18.945792 35.053075 19.255693 34.627751 19.59375 34.21875 z M 85.71875 39.09375 C 85.660194 40.082894 85.546031 41.08794 85.375 42.09375 C 85.546334 41.087416 85.65993 40.083351 85.71875 39.09375 z M 15.96875 39.28125 C 15.700128 39.716284 15.436932 40.154919 15.1875 40.59375 C 15.435215 40.158722 15.702163 39.712542 15.96875 39.28125 z M 15.1875 40.59375 C 14.941328 41.026846 14.695833 41.470186 14.46875 41.90625 C 14.697192 41.46822 14.939785 41.028778 15.1875 40.59375 z M 12.6875 45.875 C 12.522429 46.310657 12.363607 46.75179 12.21875 47.1875 C 12.366081 46.744811 12.519289 46.317626 12.6875 45.875 z M 11.8125 48.53125 C 11.687265 48.971758 11.572463 49.40465 11.46875 49.84375 C 11.573115 49.40314 11.686452 48.973267 11.8125 48.53125 z M 11.1875 51.15625 C 11.105769 51.5928 11.028209 52.035057 10.96875 52.46875 C 11.028542 52.033157 11.105221 51.594719 11.1875 51.15625 z M 10.84375 53.65625 C 10.800832 54.130424 10.764928 54.59351 10.75 55.0625 C 10.764749 54.586477 10.800181 54.137628 10.84375 53.65625 z M 10.875 58.25 C 10.916627 58.6163 10.970243 58.982862 11.03125 59.34375 C 10.968548 58.974887 10.91746 58.624532 10.875 58.25 z M 61.90625 71.59375 C 60.725768 72.196761 59.523366 72.746769 58.3125 73.25 C 59.523256 72.746819 60.725768 72.196761 61.90625 71.59375 z M 22 73.46875 C 22.905256 73.932983 23.860354 74.371545 24.84375 74.75 C 23.85993 74.371739 22.905637 73.93281 22 73.46875 z M 56.5 73.96875 C 55.277819 74.422591 54.049556 74.831441 52.8125 75.1875 C 54.049308 74.831554 55.277979 74.422518 56.5 73.96875 z M 45.375 76.75 C 44.139214 76.91449 42.907141 77.023047 41.6875 77.09375 C 42.906716 77.02324 44.139595 76.914317 45.375 76.75 z "
       transform="translate(0.76377111,5.0162732)"
       id="rect2822" />
    <path
       style="fill:#063a69;fill-opacity:1;stroke:none"
       d="m 63.772225,31.284671 c 3.426557,6.707983 -1.38662,17.061197 -10.885125,21.913201 -9.498505,4.852004 -21.28566,3.238326 -24.712216,-3.469658 -3.426557,-6.707984 2.04128,-16.952088 11.539785,-21.804092 9.498505,-4.852004 20.630999,-3.347436 24.057556,3.360549 z"
       id="path2820"
       sodipodi:nodetypes="csssc" />
    <path
       style="fill:#063a69;fill-opacity:1;stroke:none"
       d="M 53.40625 0 C 55.879331 2.5901092 58.072851 5.006897 58.65625 8.40625 C 54.063813 10.472893 52.441496 12.964576 51.3125 16.25 C 63.932569 14.281184 75.796221 17.445255 81.71875 25.125 C 83.308739 20.737655 83.959149 15.772603 83.5 12 C 82.06213 6.414163 78.228556 3.7245886 74.96875 2.1875 C 76.353949 5.9817754 75.946976 10.100038 74.0625 13.28125 C 70.110543 4.9718424 62.910081 0.084409 53.40625 0 z M 49.34375 16.59375 C 48.699915 16.720912 48.051873 16.877318 47.40625 17.03125 C 48.05042 16.877305 48.701305 16.720932 49.34375 16.59375 z M 47.40625 17.03125 C 46.747343 17.188349 46.096837 17.346091 45.4375 17.53125 C 46.091958 17.347219 46.752186 17.187559 47.40625 17.03125 z M 42.90625 18.3125 C 41.785219 18.6893 40.673764 19.102843 39.5625 19.5625 C 40.670405 19.10379 41.788698 18.688964 42.90625 18.3125 z M 39.5625 19.5625 C 38.998628 19.795737 38.434968 20.026509 37.875 20.28125 C 38.432948 20.027377 39.000717 19.795097 39.5625 19.5625 z M 35.71875 21.34375 C 33.948027 22.248266 32.246866 23.234137 30.625 24.3125 C 32.246718 23.234352 33.948027 22.248266 35.71875 21.34375 z M 30.625 24.3125 C 29.003134 25.390863 27.45707 26.558298 26 27.78125 C 27.456806 26.558684 29.003282 25.390648 30.625 24.3125 z M 26 27.78125 C 25.02862 28.596552 24.110985 29.443772 23.21875 30.3125 C 24.110768 29.444089 25.028796 28.596294 26 27.78125 z M 85.71875 39.09375 C 85.660194 40.082894 85.546031 41.08794 85.375 42.09375 C 85.546334 41.087416 85.65993 40.083351 85.71875 39.09375 z M 15.4375 40.15625 C 14.864806 41.136035 14.317612 42.13106 13.84375 43.125 C 14.321103 42.123553 14.859751 41.143281 15.4375 40.15625 z M 13.1875 44.625 C 12.761827 45.630826 12.380693 46.649011 12.0625 47.65625 C 12.380421 46.649407 12.762113 45.63041 13.1875 44.625 z M 11.3125 60.75 C 11.536404 61.656322 11.830143 62.546193 12.1875 63.40625 C 11.830107 62.546245 11.536503 61.656178 11.3125 60.75 z M 61.90625 71.59375 C 60.725768 72.196761 59.523366 72.746769 58.3125 73.25 C 59.523256 72.746819 60.725768 72.19676 61.90625 71.59375 z M 22 73.46875 C 22.905256 73.932982 23.860354 74.371546 24.84375 74.75 C 23.85993 74.371739 22.905637 73.932809 22 73.46875 z M 56.5 73.96875 C 55.277819 74.422591 54.049556 74.831441 52.8125 75.1875 C 54.049308 74.831554 55.277979 74.422518 56.5 73.96875 z M 45.375 76.75 C 44.139214 76.91449 42.907141 77.023047 41.6875 77.09375 C 42.906716 77.023241 44.139595 76.914317 45.375 76.75 z "
       transform="translate(0.76377111,5.0162732)"
       id="rect2871" />
    <path
       style="fill:#063a69;fill-opacity:1;stroke:none"
       d="M 59.90625 15.6875 C 60.485809 15.705544 61.05518 15.739998 61.625 15.78125 C 61.056646 15.739545 60.484274 15.706063 59.90625 15.6875 z M 61.75 15.78125 C 62.27457 15.820828 62.797231 15.878323 63.3125 15.9375 C 62.796278 15.877613 62.275547 15.821425 61.75 15.78125 z M 54.71875 15.84375 C 53.832156 15.918037 52.92835 15.998817 52.03125 16.125 C 52.93418 15.996882 53.826726 15.919125 54.71875 15.84375 z M 49 16.65625 C 48.187692 16.822485 47.376988 17.009874 46.5625 17.21875 C 47.372259 17.010562 48.192427 16.822347 49 16.65625 z M 46.5625 17.21875 C 45.759175 17.424763 44.959062 17.658432 44.15625 17.90625 C 44.963286 17.656495 45.754897 17.426384 46.5625 17.21875 z M 68.9375 17.03125 C 69.433816 17.171254 69.925111 17.338864 70.40625 17.5 C 69.921095 17.337836 69.438102 17.171925 68.9375 17.03125 z M 70.40625 17.5 C 70.896698 17.664253 71.370194 17.845178 71.84375 18.03125 C 71.368948 17.844915 70.898057 17.664387 70.40625 17.5 z M 13.09375 18.15625 C 3.8789226 29.727721 3.7075717 40.822799 11.46875 49.84375 C 13.386462 41.724514 19.003089 33.299529 27.09375 26.875 C 24.162116 25.427977 19.23389 25.069999 15.71875 28.46875 C 13.830341 27.276105 12.954832 23.273621 13.09375 18.15625 z M 11.46875 49.84375 C 11.32086 50.469888 11.1969 51.097269 11.09375 51.71875 C 11.197336 51.094825 11.320312 50.472211 11.46875 49.84375 z M 42.90625 18.3125 C 41.394263 18.820707 39.8982 19.403286 38.40625 20.0625 C 39.898215 19.402506 41.393451 18.822247 42.90625 18.3125 z M 38.40625 20.0625 C 37.504127 20.461101 36.608397 20.889303 35.71875 21.34375 C 36.604111 20.891492 37.508079 20.45982 38.40625 20.0625 z M 35.71875 21.34375 C 34.340578 22.047744 33.007819 22.782481 31.71875 23.59375 C 33.005222 22.78878 34.342559 22.046733 35.71875 21.34375 z M 73.25 18.59375 C 73.819077 18.853045 74.367326 19.144572 74.90625 19.4375 C 74.367822 19.144718 73.818485 18.853014 73.25 18.59375 z M 74.90625 19.4375 C 75.404536 19.708339 75.904303 20.013124 76.375 20.3125 C 75.899944 20.009851 75.409417 19.711108 74.90625 19.4375 z M 77.09375 20.78125 C 77.883054 21.325141 78.615703 21.903164 79.3125 22.53125 C 78.618233 21.905552 77.879888 21.323169 77.09375 20.78125 z M 85.71875 39.09375 C 85.660194 40.082894 85.546031 41.08794 85.375 42.09375 C 85.546334 41.087416 85.65993 40.083351 85.71875 39.09375 z M 11.0625 51.84375 C 10.965614 52.444961 10.897582 53.061482 10.84375 53.65625 C 10.897812 53.058511 10.965125 52.447897 11.0625 51.84375 z M 10.84375 53.78125 C 10.787583 54.439457 10.751904 55.071092 10.75 55.71875 C 10.75297 55.080849 10.788331 54.429285 10.84375 53.78125 z M 10.75 55.71875 C 10.748317 56.291175 10.770752 56.875229 10.8125 57.4375 C 10.769997 56.863254 10.747278 56.303551 10.75 55.71875 z M 10.8125 57.65625 C 10.864926 58.276817 10.955485 58.863212 11.0625 59.46875 C 10.959788 58.878688 10.863463 58.260567 10.8125 57.65625 z M 11.0625 59.46875 C 11.169186 60.072426 11.306496 60.663676 11.46875 61.25 C 11.30585 60.657683 11.16869 60.078792 11.0625 59.46875 z M 11.46875 61.25 C 11.629586 61.831197 11.814528 62.40696 12.03125 62.96875 C 11.814734 62.405604 11.629014 61.832731 11.46875 61.25 z M 12.03125 63.03125 C 12.248964 63.590259 12.506763 64.150152 12.78125 64.6875 C 12.505008 64.146715 12.249759 63.594139 12.03125 63.03125 z M 61.90625 71.59375 C 60.725768 72.19676 59.523366 72.746769 58.3125 73.25 C 59.523256 72.746819 60.725768 72.196761 61.90625 71.59375 z M 22 73.46875 C 22.905256 73.932983 23.860354 74.371545 24.84375 74.75 C 23.85993 74.371739 22.905637 73.932809 22 73.46875 z M 56.5 73.96875 C 55.277819 74.422591 54.049556 74.831441 52.8125 75.1875 C 54.049308 74.831554 55.277979 74.422518 56.5 73.96875 z M 45.375 76.75 C 44.139214 76.91449 42.907141 77.023047 41.6875 77.09375 C 42.906716 77.02324 44.139595 76.914317 45.375 76.75 z "
       transform="translate(0.76377111,5.0162732)"
       id="rect2896" />
    <path
       style="fill:#063a69;fill-opacity:1;stroke:none"
       d="M 59.90625 15.6875 C 60.485809 15.705544 61.05518 15.739998 61.625 15.78125 C 61.056646 15.739545 60.484274 15.706063 59.90625 15.6875 z M 61.75 15.78125 C 62.27457 15.820828 62.797231 15.878323 63.3125 15.9375 C 62.796278 15.877613 62.275547 15.821425 61.75 15.78125 z M 54.71875 15.84375 C 53.832156 15.918037 52.92835 15.998817 52.03125 16.125 C 52.93418 15.996882 53.826726 15.919125 54.71875 15.84375 z M 49 16.65625 C 48.187692 16.822485 47.376988 17.009874 46.5625 17.21875 C 47.372259 17.010562 48.192427 16.822347 49 16.65625 z M 46.5625 17.21875 C 45.759175 17.424763 44.959062 17.658432 44.15625 17.90625 C 44.963286 17.656495 45.754897 17.426384 46.5625 17.21875 z M 68.9375 17.03125 C 69.433816 17.171254 69.925111 17.338864 70.40625 17.5 C 69.921095 17.337836 69.438102 17.171925 68.9375 17.03125 z M 70.40625 17.5 C 70.896698 17.664253 71.370194 17.845178 71.84375 18.03125 C 71.368948 17.844915 70.898057 17.664387 70.40625 17.5 z M 42.90625 18.3125 C 41.394263 18.820707 39.8982 19.403286 38.40625 20.0625 C 39.898215 19.402506 41.393451 18.822247 42.90625 18.3125 z M 38.40625 20.0625 C 37.504127 20.461101 36.608397 20.889303 35.71875 21.34375 C 36.604111 20.891492 37.508079 20.45982 38.40625 20.0625 z M 35.71875 21.34375 C 34.909191 21.757287 34.123098 22.173465 33.34375 22.625 C 34.11706 22.177502 34.915701 21.753962 35.71875 21.34375 z M 73.25 18.59375 C 73.819077 18.853045 74.367326 19.144572 74.90625 19.4375 C 74.367822 19.144718 73.818485 18.853014 73.25 18.59375 z M 74.90625 19.4375 C 75.404536 19.708339 75.904303 20.013124 76.375 20.3125 C 75.899944 20.009851 75.409417 19.711108 74.90625 19.4375 z M 77.09375 20.78125 C 77.883054 21.325141 78.615703 21.903164 79.3125 22.53125 C 78.618233 21.905552 77.879888 21.323169 77.09375 20.78125 z M 33.03125 22.8125 C 32.288213 23.250062 31.557467 23.717886 30.84375 24.1875 C 31.558448 23.717826 32.287164 23.250123 33.03125 22.8125 z M 26 27.78125 C 25.02862 28.596552 24.110985 29.443772 23.21875 30.3125 C 24.110925 29.443995 25.028594 28.59642 26 27.78125 z M 20.53125 33.125 C 19.99014 33.74158 19.469926 34.366633 18.96875 35 C 19.469476 34.368049 19.990699 33.740197 20.53125 33.125 z M 17.3125 37.21875 C 16.868955 37.853651 16.464926 38.479451 16.0625 39.125 C 16.460647 38.487057 16.874136 37.846257 17.3125 37.21875 z M 16.0625 39.125 C 15.625131 39.826602 15.199638 40.538869 14.8125 41.25 C 15.199795 40.539409 15.624995 39.826006 16.0625 39.125 z M 14.8125 41.25 C 14.473739 41.872266 14.142808 42.497718 13.84375 43.125 C 14.145333 42.492352 14.470496 41.877492 14.8125 41.25 z M 85.71875 39.09375 C 85.660194 40.082894 85.546031 41.08794 85.375 42.09375 C 85.546334 41.087416 85.65993 40.083351 85.71875 39.09375 z M 0.375 43.6875 C -0.57183092 51.185155 2.5219498 60.043494 6.4375 63 C 3.5672187 63.27175 1.9115744 62.896469 0 62.78125 C 3.8459367 67.169063 9.3067663 75.462132 20.21875 72.46875 C 16.980583 70.47536 14.409548 67.875134 12.78125 64.6875 C 10.842672 60.892455 10.329226 56.524541 11.03125 52 C 6.7753674 51.026998 3.5470726 47.511807 0.375 43.6875 z M 20.21875 72.46875 C 20.54283 72.668251 20.88173 72.844121 21.21875 73.03125 C 20.883717 72.845077 20.541003 72.667126 20.21875 72.46875 z M 12.8125 45.53125 C 12.610048 46.049117 12.423963 46.575644 12.25 47.09375 C 12.425057 46.571905 12.608525 46.052809 12.8125 45.53125 z M 12.0625 47.65625 C 11.916758 48.118207 11.778646 48.570291 11.65625 49.03125 C 11.778888 48.570162 11.916513 48.118371 12.0625 47.65625 z M 11.625 49.1875 C 11.503282 49.655751 11.409585 50.127492 11.3125 50.59375 C 11.410095 50.125598 11.502574 49.657705 11.625 49.1875 z M 53.5625 74.9375 C 52.683787 75.205114 51.820328 75.469045 50.9375 75.6875 C 51.810968 75.470883 52.693084 75.20216 53.5625 74.9375 z M 26.65625 75.375 C 27.438377 75.623523 28.243843 75.833743 29.0625 76.03125 C 28.245347 75.833959 27.437065 75.62306 26.65625 75.375 z M 29.0625 76.03125 C 29.88426 76.229505 30.708558 76.416245 31.5625 76.5625 C 30.713558 76.416579 29.879653 76.228541 29.0625 76.03125 z M 31.5625 76.5625 C 32.411492 76.707908 33.280015 76.812829 34.15625 76.90625 C 33.280068 76.812302 32.411442 76.708421 31.5625 76.5625 z M 34.15625 76.90625 C 34.858339 76.981104 35.564304 77.052611 36.28125 77.09375 C 35.56514 77.052198 34.857533 76.981444 34.15625 76.90625 z M 43.53125 76.9375 C 42.97967 76.990203 42.422861 77.028628 41.875 77.0625 C 42.423503 77.028782 42.979019 76.990109 43.53125 76.9375 z M 37.34375 77.125 C 38.063974 77.149432 38.799751 77.165687 39.53125 77.15625 C 38.793399 77.165749 38.070144 77.149967 37.34375 77.125 z "
       id="rect3672"
       transform="translate(0.76377111,5.0162732)" />
    <path
       style="fill:#063a69;fill-opacity:1;stroke:none"
       d="M 90.3125 12 C 90.162345 18.85305 87.117052 22.400341 82.34375 26 C 82.782334 26.641882 83.205414 27.300952 83.5625 28 C 87.755683 36.208762 85.726294 47.164837 79.15625 56.625 C 85.506749 54.387662 103.40165 43.561521 96.875 27.28125 C 95.470953 29.332475 94.299427 31.276027 90.875 32.75 C 92.327611 29.447253 97.093023 17.168694 90.3125 12 z M 57.375 15.6875 C 57.005611 15.697185 56.622142 15.731117 56.25 15.75 C 56.807972 15.72152 57.354644 15.695307 57.90625 15.6875 C 57.726211 15.690043 57.555749 15.682761 57.375 15.6875 z M 59.96875 15.71875 C 60.375269 15.732151 60.785708 15.725122 61.1875 15.75 C 60.783981 15.724717 60.377035 15.732466 59.96875 15.71875 z M 61.1875 15.75 C 62.194801 15.812369 63.183124 15.928542 64.15625 16.0625 C 63.184456 15.928147 62.193369 15.813025 61.1875 15.75 z M 54.3125 15.875 C 53.836889 15.919002 53.353708 15.972387 52.875 16.03125 C 53.358568 15.971485 53.832101 15.919596 54.3125 15.875 z M 52.875 16.03125 C 52.30165 16.101751 51.733131 16.189318 51.15625 16.28125 C 51.727547 16.190047 52.307183 16.101428 52.875 16.03125 z M 65.875 16.34375 C 67.226927 16.594684 68.521977 16.919349 69.78125 17.3125 C 68.526265 16.92082 67.221907 16.59444 65.875 16.34375 z M 49.4375 16.59375 C 48.889594 16.700934 48.330569 16.810936 47.78125 16.9375 C 48.336464 16.809287 48.88375 16.702167 49.4375 16.59375 z M 72.9375 18.46875 C 73.80754 18.85369 74.668439 19.287765 75.46875 19.75 C 74.662398 19.284434 73.814571 18.856008 72.9375 18.46875 z M 75.46875 19.75 C 75.868906 19.981118 76.24372 20.218484 76.625 20.46875 C 76.250422 20.223584 75.861494 19.97676 75.46875 19.75 z M 42.3125 18.53125 C 41.810968 18.706604 41.312213 18.870543 40.8125 19.0625 C 41.310151 18.871245 41.813065 18.70605 42.3125 18.53125 z M 35.71875 21.34375 C 33.948027 22.248266 32.246866 23.234137 30.625 24.3125 C 32.246718 23.234352 33.948027 22.248266 35.71875 21.34375 z M 30.625 24.3125 C 29.003134 25.390863 27.457071 26.558298 26 27.78125 C 27.456806 26.558684 29.003282 25.390648 30.625 24.3125 z M 26 27.78125 C 25.02862 28.596552 24.110985 29.443772 23.21875 30.3125 C 24.110768 29.444089 25.028796 28.596294 26 27.78125 z M 80.84375 24.0625 C 81.097323 24.346507 81.326714 24.639599 81.5625 24.9375 C 81.32775 24.641116 81.096135 24.345146 80.84375 24.0625 z M 15.4375 40.15625 C 14.864806 41.136035 14.317612 42.13106 13.84375 43.125 C 14.321103 42.123553 14.859751 41.143281 15.4375 40.15625 z M 13.1875 44.625 C 12.761827 45.630826 12.380693 46.649011 12.0625 47.65625 C 12.380421 46.649407 12.762113 45.63041 13.1875 44.625 z M 79.125 56.625 C 78.098637 58.101551 76.958413 59.546979 75.71875 60.9375 C 76.963353 59.547867 78.096941 58.103992 79.125 56.625 z M 75.71875 60.9375 C 74.479087 62.328021 73.129623 63.667266 71.6875 64.9375 C 73.134743 63.670536 74.475136 62.326029 75.71875 60.9375 z M 71.6875 64.9375 C 70.966439 65.572617 70.238394 66.182628 69.46875 66.78125 C 70.233795 66.189083 70.970172 65.565472 71.6875 64.9375 z M 69.46875 66.78125 C 68.92088 67.207379 68.353151 67.625472 67.78125 68.03125 C 68.355864 67.625382 68.918168 67.207416 69.46875 66.78125 z M 11.3125 60.75 C 11.536405 61.656322 11.830142 62.546193 12.1875 63.40625 C 11.830107 62.546245 11.536503 61.656178 11.3125 60.75 z M 64.40625 70.21875 C 63.592721 70.698101 62.759078 71.158111 61.90625 71.59375 C 62.757755 71.158787 63.593264 70.696513 64.40625 70.21875 z M 61.90625 71.59375 C 60.725768 72.196761 59.523366 72.746769 58.3125 73.25 C 59.523256 72.746819 60.725768 72.196761 61.90625 71.59375 z M 22 73.46875 C 22.905256 73.932983 23.860354 74.371545 24.84375 74.75 C 23.85993 74.371739 22.905637 73.932809 22 73.46875 z M 56.5 73.96875 C 55.277819 74.422591 54.049556 74.831441 52.8125 75.1875 C 54.049308 74.831554 55.277979 74.422518 56.5 73.96875 z M 45.375 76.75 C 44.139214 76.91449 42.907141 77.023047 41.6875 77.09375 C 42.906716 77.023241 44.139595 76.914317 45.375 76.75 z "
       transform="translate(0.76377111,5.0162732)"
       id="rect3675" />
    <path
       style="fill:#063a69;fill-opacity:1;stroke:none"
       d="M 59.90625 15.6875 C 60.485809 15.705544 61.05518 15.739998 61.625 15.78125 C 61.056646 15.739545 60.484274 15.706063 59.90625 15.6875 z M 61.75 15.78125 C 62.27457 15.820828 62.797231 15.878323 63.3125 15.9375 C 62.796278 15.877613 62.275547 15.821425 61.75 15.78125 z M 54.71875 15.84375 C 53.832156 15.918037 52.92835 15.998817 52.03125 16.125 C 52.93418 15.996882 53.826726 15.919125 54.71875 15.84375 z M 49 16.65625 C 48.187692 16.822485 47.376988 17.009874 46.5625 17.21875 C 47.372259 17.010562 48.192427 16.822347 49 16.65625 z M 46.5625 17.21875 C 45.759175 17.424763 44.959062 17.658432 44.15625 17.90625 C 44.963286 17.656495 45.754897 17.426384 46.5625 17.21875 z M 68.9375 17.03125 C 69.433816 17.171254 69.925111 17.338864 70.40625 17.5 C 69.921095 17.337836 69.438102 17.171925 68.9375 17.03125 z M 70.40625 17.5 C 70.896698 17.664253 71.370194 17.845178 71.84375 18.03125 C 71.368948 17.844915 70.898057 17.664387 70.40625 17.5 z M 42.90625 18.3125 C 41.394263 18.820707 39.8982 19.403286 38.40625 20.0625 C 39.898215 19.402506 41.393451 18.822247 42.90625 18.3125 z M 38.40625 20.0625 C 37.504127 20.461101 36.608397 20.889303 35.71875 21.34375 C 36.604111 20.891492 37.508079 20.45982 38.40625 20.0625 z M 35.71875 21.34375 C 33.948028 22.248266 32.246865 23.234137 30.625 24.3125 C 32.246718 23.234352 33.948027 22.248266 35.71875 21.34375 z M 30.625 24.3125 C 29.003135 25.390863 27.45707 26.558298 26 27.78125 C 27.456806 26.558684 29.003282 25.390648 30.625 24.3125 z M 26 27.78125 C 25.02862 28.596552 24.110985 29.443772 23.21875 30.3125 C 24.110768 29.444089 25.028796 28.596294 26 27.78125 z M 73.25 18.59375 C 73.819077 18.853046 74.367326 19.144572 74.90625 19.4375 C 74.367822 19.144718 73.818485 18.853014 73.25 18.59375 z M 74.90625 19.4375 C 75.404536 19.708339 75.904303 20.013124 76.375 20.3125 C 75.899944 20.009851 75.409417 19.711108 74.90625 19.4375 z M 77.09375 20.78125 C 77.883054 21.325141 78.615703 21.903164 79.3125 22.53125 C 78.618233 21.905552 77.879888 21.323169 77.09375 20.78125 z M 85 31.75 C 85.17613 32.40051 85.324248 33.078467 85.4375 33.75 C 85.322861 33.071473 85.17878 32.407092 85 31.75 z M 85.4375 33.75 C 85.549036 34.411356 85.635707 35.071426 85.6875 35.75 C 85.635426 35.07509 85.548654 34.407899 85.4375 33.75 z M 85.6875 35.8125 C 85.731445 36.409463 85.751301 37.017091 85.75 37.625 C 85.750635 37.019347 85.731781 36.407289 85.6875 35.8125 z M 85.75 38.03125 C 85.737957 38.684238 85.687673 39.337552 85.625 40 C 85.686665 39.339418 85.738704 38.682415 85.75 38.03125 z M 15.4375 40.15625 C 14.864806 41.136035 14.317612 42.13106 13.84375 43.125 C 14.321103 42.123553 14.859751 41.143281 15.4375 40.15625 z M 85.5625 40.59375 C 85.501848 41.114176 85.434686 41.631936 85.34375 42.15625 C 85.43431 41.631031 85.502347 41.115059 85.5625 40.59375 z M 85.34375 42.15625 C 85.218412 42.878917 85.056754 43.616538 84.875 44.34375 C 85.057666 43.611604 85.218306 42.883785 85.34375 42.15625 z M 84.875 44.34375 C 84.698733 45.049008 84.509382 45.762271 84.28125 46.46875 C 84.511062 45.757355 84.697817 45.053919 84.875 44.34375 z M 13.1875 44.625 C 12.761827 45.630826 12.380693 46.649011 12.0625 47.65625 C 12.380421 46.649407 12.762113 45.63041 13.1875 44.625 z M 84.21875 46.625 C 83.989831 47.322063 83.746938 47.992377 83.46875 48.6875 C 83.740659 48.006129 83.994228 47.308226 84.21875 46.625 z M 83.46875 48.6875 C 83.17804 49.413913 82.843249 50.15393 82.5 50.875 C 82.845927 50.147694 83.176354 49.420209 83.46875 48.6875 z M 82.5 50.875 C 82.212315 51.479345 81.917507 52.089036 81.59375 52.6875 C 81.917262 52.089122 82.212607 51.47924 82.5 50.875 z M 91.6875 55.125 C 86.323726 55.246498 79.834968 56.852681 76.3125 60.4375 C 76.048778 60.70589 75.767344 60.958765 75.5 61.21875 C 71.813977 65.271513 67.232588 68.872963 61.90625 71.59375 C 60.767261 72.175566 59.604945 72.698594 58.4375 73.1875 C 63.152165 74.535289 69.539135 74.368429 74.03125 72.5 C 79.642393 70.166128 84.028815 70.867919 86.1875 72.625 C 86.726473 66.256601 87.578286 60.083398 99.25 56.40625 C 97.711026 55.509714 94.905764 55.052101 91.6875 55.125 z M 78.46875 57.5625 C 78.0542 58.126597 77.634353 58.698761 77.1875 59.25 C 77.637932 58.694714 78.051181 58.130811 78.46875 57.5625 z M 77.1875 59.25 C 76.679517 59.87665 76.14247 60.486289 75.59375 61.09375 C 76.13929 60.489882 76.682313 59.872787 77.1875 59.25 z M 11.3125 60.75 C 11.536405 61.656322 11.830142 62.546193 12.1875 63.40625 C 11.830107 62.546245 11.536503 61.656178 11.3125 60.75 z M 18.90625 71.59375 C 19.283762 71.861952 19.664027 72.125605 20.0625 72.375 C 19.667607 72.127547 19.280537 71.859715 18.90625 71.59375 z M 22 73.46875 C 22.428042 73.688258 22.866367 73.893365 23.3125 74.09375 C 22.862037 73.891808 22.432054 73.69014 22 73.46875 z M 55.9375 74.15625 C 55.511504 74.308852 55.084262 74.452999 54.65625 74.59375 C 55.08456 74.452723 55.511194 74.309145 55.9375 74.15625 z M 53.25 75.03125 C 52.669498 75.204308 52.082361 75.379592 51.5 75.53125 C 52.082025 75.379999 52.669852 75.203869 53.25 75.03125 z M 51.5 75.53125 C 50.917639 75.682908 50.364401 75.807103 49.78125 75.9375 C 50.35695 75.808815 50.925094 75.680651 51.5 75.53125 z M 47.875 76.34375 C 47.344562 76.441485 46.81053 76.513395 46.28125 76.59375 C 46.811423 76.513331 47.343688 76.441599 47.875 76.34375 z M 46.28125 76.59375 C 45.762242 76.672545 45.235876 76.750318 44.71875 76.8125 C 45.242247 76.749819 45.755841 76.673447 46.28125 76.59375 z M 34.375 76.9375 C 34.922377 76.99299 35.474876 77.027406 36.03125 77.0625 C 35.480294 77.027753 34.917117 76.992271 34.375 76.9375 z M 36.03125 77.0625 C 36.372743 77.08404 36.717952 77.111187 37.0625 77.125 C 36.716283 77.11117 36.374376 77.08414 36.03125 77.0625 z "
       transform="translate(0.76377111,5.0162732)"
       id="rect3678" />
    <path
       style="fill:#063a69;fill-opacity:1;stroke:none"
       d="M 56.84375 17.71875 C 53.57826 17.80437 50.203376 18.28607 46.8125 19.15625 C 50.203376 18.28607 53.57826 17.80437 56.84375 17.71875 z M 59.21875 17.75 C 59.651976 17.763835 60.07256 17.753443 60.5 17.78125 C 60.07606 17.753246 59.648528 17.764141 59.21875 17.75 z M 62.8125 18.03125 C 63.451735 18.112603 64.066063 18.198588 64.6875 18.3125 C 64.064759 18.197134 63.45312 18.113861 62.8125 18.03125 z M 67.4375 19 C 75.192465 24.961185 75.236006 33.779144 74.40625 42.5625 C 71.969457 42.523492 69.655544 40.726845 67.21875 38.96875 C 70.828949 52.302458 65.345144 61.554901 63.53125 68.34375 C 63.635443 68.310018 63.739044 68.256338 63.84375 68.21875 C 63.852891 68.215468 63.865906 68.221923 63.875 68.21875 C 79.587689 58.727466 87.215733 40.927476 81.21875 29.1875 C 78.786026 24.425083 74.245949 21.08819 68.59375 19.28125 C 68.48913 19.253374 68.385482 19.213691 68.28125 19.1875 C 68.004786 19.118031 67.727052 19.066139 67.4375 19 z M 35.09375 23.84375 C 34.024699 24.442908 32.975255 25.081007 31.96875 25.75 C 32.975255 25.081007 34.024699 24.442908 35.09375 23.84375 z M 17.0625 41.875 C 16.575267 42.793419 16.111997 43.728643 15.71875 44.65625 C 16.115492 43.720399 16.570113 42.801464 17.0625 41.875 z M 13.9375 50.28125 C 13.748494 51.201561 13.613681 52.125456 13.53125 53.03125 C 13.614579 52.115594 13.745287 51.211697 13.9375 50.28125 z M 63.6875 68.34375 C 63.299051 68.574817 62.89731 68.782364 62.5 69 C 62.897777 68.778533 63.299402 68.575531 63.6875 68.34375 z M 19.375 68.4375 C 20.043729 69.025652 20.770433 69.582892 21.53125 70.09375 C 20.770433 69.582892 20.043729 69.025652 19.375 68.4375 z M 21.53125 70.09375 C 22.292067 70.604608 23.094234 71.067691 23.9375 71.5 C 23.094234 71.067691 22.292067 70.604608 21.53125 70.09375 z M 59.4375 70.5625 C 58.323431 71.07707 57.200143 71.546535 56.0625 71.96875 C 57.200143 71.546535 58.323431 71.07707 59.4375 70.5625 z M 50.875 73.5625 C 49.729998 73.846076 48.58203 74.08537 47.4375 74.28125 C 48.591909 74.084433 49.720069 73.848535 50.875 73.5625 z M 47.40625 74.28125 C 46.251841 74.478067 45.112998 74.641146 43.96875 74.75 C 45.103039 74.642093 46.261935 74.47559 47.40625 74.28125 z "
       id="rect3683"
       transform="translate(0.76377111,5.0162732)" />
    <path
       style="fill:#063a69;fill-opacity:1;stroke:none"
       d="M 56.84375 17.71875 C 53.57826 17.80437 50.203376 18.28607 46.8125 19.15625 C 50.203376 18.28607 53.57826 17.80437 56.84375 17.71875 z M 60.84375 17.8125 C 62.15371 17.909584 63.444626 18.084676 64.6875 18.3125 C 63.444626 18.084676 62.15371 17.909584 60.84375 17.8125 z M 68.28125 19.1875 C 69.440612 19.544046 70.565575 19.954252 71.625 20.4375 C 70.565575 19.954252 69.440612 19.544046 68.28125 19.1875 z M 73.1875 21.21875 C 74.190798 21.764592 75.121277 22.361733 76 23.03125 C 75.121277 22.361733 74.190798 21.764592 73.1875 21.21875 z M 36.71875 22.96875 C 36.170745 23.24868 35.626797 23.544788 35.09375 23.84375 C 35.628275 23.544171 36.169416 23.249359 36.71875 22.96875 z M 25.875 30.5625 C 25.512533 30.899039 25.161416 31.248847 24.8125 31.59375 C 25.156336 31.252718 25.517963 30.895387 25.875 30.5625 z M 21.59375 35.09375 C 20.958101 35.868226 20.380936 36.6704 19.8125 37.46875 C 20.37681 36.675368 20.963598 35.863892 21.59375 35.09375 z M 18.1875 39.9375 C 13.344937 47.898378 11.895833 56.56269 15.34375 63.3125 C 21.4329 75.232896 41.794666 78.460595 58.96875 70.75 C 61.151526 66.425772 60.245772 58.327102 57.4375 48.21875 C 55.347062 49.681089 53.575877 50.979419 51.28125 51.625 C 53.277964 56.608307 54.381434 60.77458 52.46875 66.1875 C 43.912497 69.207297 34.974658 61.143571 30.71875 53.78125 C 29.74073 56.686951 29.349534 59.88943 26.84375 62.03125 C 21.146696 56.930428 19.273879 47.86578 18.1875 39.9375 z M 58.96875 70.75 C 59.680375 70.430504 60.394341 70.107271 61.09375 69.75 C 60.394341 70.107271 59.680375 70.430504 58.96875 70.75 z M 61.09375 69.75 C 62.741754 68.908171 64.322654 67.975724 65.8125 66.96875 C 64.322654 67.975724 62.741754 68.908171 61.09375 69.75 z M 77.78125 54.90625 C 77.19136 55.810116 76.551943 56.688597 75.875 57.5625 C 76.546242 56.694884 77.195775 55.803352 77.78125 54.90625 z M 75.875 57.59375 C 75.202315 58.461124 74.474082 59.295344 73.71875 60.125 C 74.473752 59.294799 75.202719 58.461635 75.875 57.59375 z M 73.71875 60.15625 C 73.34308 60.568455 72.926752 60.973622 72.53125 61.375 C 72.937416 60.963216 73.333473 60.579438 73.71875 60.15625 z M 72.53125 61.375 C 71.729713 62.188445 70.911859 62.987202 70.03125 63.75 C 70.906215 62.99209 71.734336 62.182936 72.53125 61.375 z M 70.03125 63.75 C 69.156704 64.507547 68.230645 65.238036 67.28125 65.9375 C 68.237738 65.233621 69.150641 64.512798 70.03125 63.75 z "
       transform="translate(0.76377111,5.0162732)"
       id="rect3686" />
    <text
       xml:space="preserve"
       style="font-size:8px;font-style:normal;font-variant:normal;font-weight:bold;font-stretch:normal;fill:#063a69;fill-opacity:1;stroke:none;display:inline;font-family:Arial Black;-inkscape-font-specification:'Arial Black, Bold'"
       x="85.262634"
       y="13.937773"
       id="text3750"><tspan
         sodipodi:role="line"
         id="tspan3752"
         x="85.262634"
         y="13.937773">R</tspan></text>
    <path
       transform="matrix(1.419044,0,0,1.419044,205.96021,-30.675438)"
       style="fill:none;stroke:#063a69;stroke-width:0.62396872;stroke-miterlimit:4;stroke-opacity:1;display:inline"
       d="m -79.650421,29.459745 c 0,1.687277 -1.367808,3.055085 -3.055084,3.055085 -1.687277,0 -3.055085,-1.367808 -3.055085,-3.055085 0,-1.687276 1.367808,-3.055084 3.055085,-3.055084 1.687276,0 3.055084,1.367808 3.055084,3.055084 z"
       id="path3754" />
    <g
       style="font-size:16px;font-style:italic;font-variant:normal;font-weight:bold;font-stretch:normal;fill:#063a69;fill-opacity:1;stroke:none;font-family:Arial Black;-inkscape-font-specification:Andale Mono Italic"
       id="text2831">
      <path
         d="m 1.7676609,93.080605 3.40625,-0.210938 c -0.036463,0.546879 0.028641,0.963545 0.1953125,1.25 0.2760365,0.463544 0.7525985,0.695315 1.4296875,0.695313 0.5052015,2e-6 0.9166595,-0.117186 1.234375,-0.351563 0.3229088,-0.239581 0.515617,-0.515622 0.578125,-0.828125 0.057284,-0.296871 -0.020841,-0.562496 -0.234375,-0.796875 C 8.1634866,92.604046 7.6035913,92.382692 6.6973484,92.174355 5.218177,91.825401 4.2051572,91.36186 3.6582859,90.78373 3.1062,90.205611 2.9187001,89.468633 3.0957859,88.572792 c 0.119789,-0.588533 0.4010387,-1.14322 0.84375,-1.664062 0.4479128,-0.526032 1.0442664,-0.93749 1.7890625,-1.234375 0.7447857,-0.302072 1.7135347,-0.453114 2.90625,-0.453125 1.4635316,1.1e-5 2.5234266,0.273448 3.1796876,0.820312 0.661446,0.541677 0.947904,1.406259 0.859375,2.59375 l -3.3750001,0.195313 c 0.015616,-0.515617 -0.096363,-0.890617 -0.3359375,-1.125 -0.2343832,-0.234366 -0.6015704,-0.351553 -1.1015625,-0.351563 -0.4114653,10e-6 -0.73959,0.08855 -0.984375,0.265625 -0.2447978,0.171884 -0.390631,0.382821 -0.4375,0.632813 -0.036464,0.1823 0.015619,0.346362 0.15625,0.492187 0.1354104,0.15105 0.5025976,0.291675 1.1015625,0.421875 1.479158,0.333341 2.5182196,0.671882 3.1171876,1.015625 0.604156,0.338548 1.007801,0.760423 1.210937,1.265625 0.203114,0.505213 0.242176,1.070317 0.117188,1.695313 -0.145845,0.734378 -0.484386,1.41146 -1.015625,2.03125 -0.526052,0.619792 -1.1875095,1.091146 -1.9843751,1.414062 -0.7916745,0.317708 -1.7421944,0.476562 -2.8515625,0.476563 -1.9479205,-1e-6 -3.2213567,-0.375 -3.8203125,-1.125 -0.5989597,-0.749999 -0.8333345,-1.703123 -0.703125,-2.859375"
         id="path2839" />
      <path
         d="m 21.752036,92.18998 2.914062,0.9375 c -0.385428,0.869794 -0.859386,1.596356 -1.421875,2.179687 -0.56251,0.583334 -1.205739,1.023438 -1.929687,1.320313 -0.723967,0.296874 -1.598966,0.445312 -2.625,0.445312 -1.244797,0 -2.226567,-0.179687 -2.945313,-0.539062 -0.713544,-0.364583 -1.265627,-1.002603 -1.65625,-1.914063 -0.390626,-0.911455 -0.445314,-2.078121 -0.164062,-3.5 0.380206,-1.895826 1.174476,-3.351553 2.382812,-4.367187 1.213537,-1.020823 2.742181,-1.531239 4.585938,-1.53125 1.442698,1.1e-5 2.518218,0.291678 3.226562,0.875 0.708321,0.583343 1.143216,1.479176 1.304688,2.6875 l -3.265625,0.695312 c -0.03647,-0.348951 -0.09897,-0.604159 -0.1875,-0.765625 -0.145843,-0.270825 -0.348968,-0.479158 -0.609375,-0.625 -0.255217,-0.145824 -0.559905,-0.218741 -0.914063,-0.21875 -0.802091,9e-6 -1.479173,0.322925 -2.03125,0.96875 -0.421881,0.479174 -0.73438,1.231778 -0.9375,2.257813 -0.255213,1.270837 -0.236984,2.143232 0.05469,2.617187 0.291661,0.468753 0.786452,0.703128 1.484375,0.703125 0.677076,3e-6 1.226554,-0.190101 1.648437,-0.570312 0.421866,-0.380205 0.783845,-0.932288 1.085938,-1.65625"
         id="path2841" />
      <path
         d="m 26.322348,91.150917 c 0.374998,-1.869784 1.187497,-3.325512 2.4375,-4.367187 1.249995,-1.041656 2.804681,-1.562489 4.664063,-1.5625 1.906239,1.1e-5 3.273425,0.513032 4.101562,1.539062 0.828112,1.020842 1.057278,2.453133 0.6875,4.296875 -0.270846,1.338546 -0.716158,2.437503 -1.335937,3.296875 -0.619804,0.854168 -1.403657,1.520834 -2.351563,2 -0.947925,0.473958 -2.057299,0.710937 -3.328125,0.710938 -1.291672,-1e-6 -2.320316,-0.20573 -3.085937,-0.617188 -0.76042,-0.411457 -1.315107,-1.062498 -1.664063,-1.953125 -0.34896,-0.890622 -0.390626,-2.005204 -0.125,-3.34375 m 3.539063,0.01563 c -0.229172,1.156255 -0.179693,1.986983 0.148437,2.492188 0.32812,0.505211 0.861973,0.757815 1.601563,0.757812 0.760409,3e-6 1.398429,-0.247393 1.914062,-0.742187 0.515616,-0.494788 0.901032,-1.382808 1.15625,-2.664063 0.213532,-1.078118 0.153636,-1.864576 -0.179687,-2.359375 -0.333343,-0.499991 -0.872405,-0.749991 -1.617188,-0.75 -0.713549,9e-6 -1.338548,0.252613 -1.875,0.757813 -0.531256,0.505216 -0.914068,1.341152 -1.148437,2.507812"
         id="path2843" />
      <path
         d="m 40.048911,85.416542 10.757812,0 -0.5625,2.828125 -3.609375,0 -1.726562,8.625 -3.539063,0 1.726563,-8.625 -3.609375,0 0.5625,-2.828125"
         id="path2845" />
      <path
         d="m 52.416098,85.416542 3.539063,0 -1.726563,8.632813 5.523438,0 -0.5625,2.820312 -9.0625,0 2.289062,-11.453125"
         id="path2847" />
      <path
         d="m 68.236411,94.979042 -4.03125,0 -0.929688,1.890625 -3.617187,0 6.59375,-11.453125 3.859375,0 2.015625,11.453125 -3.703125,0 -0.1875,-1.890625 m -0.242188,-2.476562 -0.445312,-4.117188 -2.078125,4.117188 2.523437,0"
         id="path2849" />
      <path
         d="m 75.564536,85.416542 3.304687,0 3.046875,6.335938 1.265625,-6.335938 3.335938,0 -2.289063,11.453125 -3.335937,0 -3.03125,-6.289062 -1.257813,6.289062 -3.328125,0 2.289063,-11.453125"
         id="path2851" />
      <path
         d="m 88.931723,85.416542 5.257813,0 c 1.036448,1.2e-5 1.846344,0.140636 2.429687,0.421875 0.583322,0.281261 1.028634,0.684906 1.335938,1.210938 0.312487,0.526051 0.492174,1.138029 0.539062,1.835937 0.05207,0.697924 -1.3e-5,1.437507 -0.15625,2.21875 -0.244804,1.223963 -0.575533,2.174483 -0.992187,2.851563 -0.41147,0.671877 -0.911469,1.23698 -1.5,1.695312 -0.583343,0.453126 -1.174488,0.755209 -1.773438,0.90625 -0.817716,0.208333 -1.541673,0.3125 -2.171875,0.3125 l -5.257812,0 2.289062,-11.453125 m 3.023438,2.59375 -1.25,6.257813 0.867187,0 c 0.739577,2e-6 1.281243,-0.08073 1.625,-0.242188 0.343742,-0.166664 0.645825,-0.453122 0.90625,-0.859375 0.260408,-0.411454 0.481762,-1.075516 0.664063,-1.992187 0.239574,-1.213535 0.20572,-2.044264 -0.101563,-2.492188 -0.302092,-0.447908 -0.911466,-0.671866 -1.828125,-0.671875 l -0.882812,0"
         id="path2853" />
    </g>
    <use
       x="0"
       y="0"
       xlink:href="#text2831"
       id="use2836"
       transform="translate(-120.59623,1.6821704)"
       width="99.235703"
       height="92.056519" />
  </g>
  <g
     inkscape:groupmode="layer"
     id="layer1"
     inkscape:label="Calque"
     style="opacity:0.53293415;display:inline" />
</svg>
